<svg width="50" height="14" viewBox="0 0 50 14" fill="none" xmlns="http://www.w3.org/2000/svg">
<path d="M46.7098 10.0655H49.673V9.09375H46.7095C46.8213 9.40784 46.8213 9.7514 46.7095 10.0655" fill="#1D1D1B"/>
<path d="M20.4259 3.93449H17.9648V10.0623H20.2523C21.7274 10.0623 22.3088 9.38827 22.3088 8.23269C22.3088 7.20808 21.5625 6.85783 21.5625 6.85783C21.7621 6.72155 21.9253 6.53751 22.0373 6.32215C22.1494 6.10678 22.2068 5.86678 22.2046 5.62355C22.2046 4.59023 21.6318 3.93359 20.4259 3.93359V3.93449ZM20.5211 4.90534C20.9811 4.90534 21.2058 5.20302 21.2058 5.64098C21.2058 6.13991 20.8846 6.40275 20.4161 6.40275H18.9713V4.90684L20.5211 4.90534ZM18.9713 7.36578H20.4169C21.0939 7.36578 21.285 7.7683 21.285 8.23269C21.285 8.81033 21.0766 9.09059 20.2872 9.09059H18.9713V7.36578ZM26.7066 3.93449H25.6912V10.0623H26.7066V3.93449ZM30.7594 3.93449V10.0623H34.6866V9.09209H31.7746V3.93449H30.7594ZM38.0142 3.93449V10.0623H41.9414V9.09209H39.0279V3.93449H38.0142Z" fill="#1D1D1B"/>
<path d="M48.2562 4.8L48.1758 4.90604L45.318 8.65753C45.1417 8.66726 44.9719 8.72838 44.8294 8.83348C44.6868 8.93858 44.5775 9.08315 44.5147 9.24967C44.4519 9.41619 44.4384 9.5975 44.4757 9.77165C44.513 9.94579 44.5995 10.1053 44.7248 10.2308C44.8501 10.3563 45.0088 10.4424 45.1817 10.4788C45.3546 10.5151 45.5341 10.5 45.6987 10.4355C45.8633 10.3709 46.0057 10.2595 46.1088 10.1149C46.2119 9.97023 46.2712 9.79853 46.2795 9.62056C46.2875 9.46488 46.2557 9.30973 46.1872 9.16999L46.5215 8.73323L49.1204 5.33889C49.3156 5.33141 49.5032 5.26089 49.6556 5.13771C49.8081 5.01452 49.9173 4.84519 49.9671 4.65466C50.017 4.46413 50.0049 4.26248 49.9327 4.0794C49.8604 3.89633 49.7317 3.74152 49.5657 3.63777C49.3997 3.53403 49.205 3.48684 49.0104 3.50316C48.8157 3.51948 48.6314 3.59844 48.4846 3.72841C48.3378 3.85838 48.2363 4.03249 48.1949 4.22508C48.1536 4.41768 48.1747 4.61859 48.255 4.7982" fill="#1D1D1B"/>
<path d="M47.7462 3.93359H44.8726V4.90534H47.7462C47.6345 4.59122 47.6345 4.24771 47.7462 3.93359Z" fill="#1D1D1B"/>
<path d="M9.39163 0H4.48296C2.00709 0 0 2.02523 0 4.52348V9.47652C0 11.9748 2.00709 14 4.48296 14H9.39163C11.8675 14 13.8746 11.9748 13.8746 9.47652V4.52348C13.8746 2.02523 11.8675 0 9.39163 0Z" fill="#0065FF"/>
<path d="M7.97826 4.77691L7.89669 4.88415L5.00549 8.68101C4.8075 8.6921 4.61832 8.76724 4.46596 8.89531C4.31361 9.02338 4.20618 9.19755 4.15961 9.39204C4.11303 9.58653 4.12978 9.79099 4.20737 9.97512C4.28496 10.1593 4.41926 10.3133 4.59039 10.4144C4.76151 10.5155 4.96036 10.5582 5.15746 10.5364C5.35457 10.5145 5.53946 10.4292 5.68474 10.293C5.83002 10.1568 5.92797 9.97704 5.96407 9.7803C6.00017 9.58356 5.97251 9.38031 5.88518 9.20067L6.22187 8.7573L8.85199 5.32271C9.04973 5.3155 9.23994 5.24434 9.39455 5.11974C9.54916 4.99514 9.65999 4.8237 9.71069 4.6307C9.76138 4.43771 9.74926 4.23338 9.6761 4.04787C9.60295 3.86235 9.47264 3.70548 9.3044 3.60038C9.13616 3.49529 8.9389 3.44754 8.74172 3.46418C8.54454 3.48082 8.35787 3.56097 8.20927 3.69281C8.06067 3.82464 7.958 4.00118 7.91641 4.19638C7.87481 4.39158 7.8965 4.5951 7.97826 4.77691ZM7.46236 3.90069H4.55478V4.88415H7.46295C7.35008 4.56622 7.35008 4.21862 7.46295 3.90069H7.46236ZM6.41299 10.1021H9.41195V9.11867H6.41269C6.52574 9.43656 6.52574 9.78423 6.41269 10.1021H6.41299Z" fill="white"/>
</svg>
