<svg xmlns="http://www.w3.org/2000/svg" xmlns:xlink="http://www.w3.org/1999/xlink" viewBox="0 0 73.05 16.71"><defs><style>.cls-1{fill:none;}.cls-2{font-size:4px;font-family:Optima, Optima Cyr;}.cls-3{clip-path:url(#clip-path);}</style><clipPath id="clip-path" transform="translate(-407.64 -158.75)"><rect class="cls-1" width="841.89" height="595.28"/></clipPath></defs><g id="Layer_2" data-name="Layer 2"><g id="Layer_1-2" data-name="Layer 1"><path d="M432.51,163.46c.37-1,.71-1.91,1-2.81a2.16,2.16,0,0,0,1,0l-.69,1.62-.83,2c-.29.71-.57,1.43-.85,2.16s-.54,1.41-.76,2a3.73,3.73,0,0,0-.5,0,3.84,3.84,0,0,0-.5,0c-.11-.31-.25-.68-.41-1.11s-.34-.89-.53-1.38-.38-1-.58-1.49-.41-1-.6-1.48-.36-.91-.53-1.32l-.43-1,.51,0,.51,0,.5,0,.5,0c.13.43.28.87.44,1.34s.33,1,.51,1.44.35,1,.54,1.48.37,1,.54,1.46c.4-1,.78-1.94,1.15-2.91" transform="translate(-407.64 -158.75)"/><path d="M436.47,162.12c0-.48,0-1-.06-1.47l.42,0,.51,0,.51,0,.42,0c0,.49,0,1-.06,1.47s0,1,0,1.69v1.54q0,.94,0,1.68c0,.49,0,1,.06,1.45a2.67,2.67,0,0,0-.42,0h-1a2.77,2.77,0,0,0-.42,0c0-.48,0-1,.06-1.45s0-1.05,0-1.68v-1.54c0-.64,0-1.2,0-1.69" transform="translate(-407.64 -158.75)"/><path d="M442.36,161.9a3.13,3.13,0,0,0,0-.4l-.42,0-.54,0-.58.05-.54.06c0-.08,0-.16,0-.25a3.13,3.13,0,0,0,0-.5,2.17,2.17,0,0,1,0-.25l.7,0,.63,0h3.24l.63,0,.65,0c0,.08,0,.17,0,.25a1.57,1.57,0,0,0,0,.5c0,.09,0,.17,0,.25l-.51-.06-.57-.05-.53,0-.42,0s0,.1,0,.16a1.77,1.77,0,0,0,0,.24v3.45c0,.63,0,1.19,0,1.68s0,1,.07,1.45a2.77,2.77,0,0,0-.42,0h-1a2.77,2.77,0,0,0-.42,0c0-.48.06-1,.07-1.45s0-1.05,0-1.68V161.9" transform="translate(-407.64 -158.75)"/><path d="M449.68,162.79c-.2.46-.39.91-.56,1.35s-.35.9-.51,1.36h2.08c-.16-.46-.33-.91-.49-1.36l-.52-1.35m4,5.69-.52,0h-1l-.48,0c-.12-.38-.25-.76-.38-1.14s-.26-.78-.41-1.16l-.73,0H448.9l-.59,0c-.15.38-.29.77-.42,1.16s-.25.76-.35,1.14l-.27,0h-.54l-.3,0c.09-.2.21-.48.37-.82s.31-.75.5-1.19l.58-1.42q.31-.75.63-1.53l.61-1.53c.21-.5.39-1,.56-1.4l.21,0,.22,0,.22,0,.21,0c.25.65.51,1.34.78,2.08s.56,1.46.84,2.17.55,1.38.82,2,.51,1.18.73,1.62" transform="translate(-407.64 -158.75)"/><path d="M461.32,167.67a2.21,2.21,0,0,0-.09.49,6,6,0,0,1-4.1.18,3.61,3.61,0,0,1-1.32-.78,3.42,3.42,0,0,1-.82-1.2,4,4,0,0,1-.29-1.51,4.84,4.84,0,0,1,.37-2,3.69,3.69,0,0,1,1-1.34,4,4,0,0,1,1.44-.76,6.11,6.11,0,0,1,1.72-.24,4.7,4.7,0,0,1,.63.05c.22,0,.43.07.64.12l.58.17a2.72,2.72,0,0,1,.48.22,3,3,0,0,0-.18.58,3.68,3.68,0,0,0-.08.58h-.17a2.84,2.84,0,0,0-.88-.78,2.41,2.41,0,0,0-1.07-.23,2.35,2.35,0,0,0-.92.2,2.51,2.51,0,0,0-.84.63,3.28,3.28,0,0,0-.61,1.08,4.8,4.8,0,0,0-.23,1.56,4.14,4.14,0,0,0,.24,1.5,2.88,2.88,0,0,0,.62,1,2.19,2.19,0,0,0,.87.58,2.68,2.68,0,0,0,1.53.12,4,4,0,0,0,.56-.17,2.49,2.49,0,0,0,.51-.27,2.18,2.18,0,0,0,.43-.35l.15.09a4.5,4.5,0,0,0-.16.48" transform="translate(-407.64 -158.75)"/><path d="M469.69,167.67a4.63,4.63,0,0,0-.09.49,5.93,5.93,0,0,1-4.09.18,3.58,3.58,0,0,1-1.33-.78,3.42,3.42,0,0,1-.82-1.2,4,4,0,0,1-.29-1.51,5,5,0,0,1,.37-2,3.69,3.69,0,0,1,1-1.34,4,4,0,0,1,1.45-.76,6.06,6.06,0,0,1,1.72-.24,4.69,4.69,0,0,1,.62.05c.22,0,.43.07.64.12l.59.17a3,3,0,0,1,.47.22,3.89,3.89,0,0,0-.18.58,3.68,3.68,0,0,0-.08.58h-.16a3,3,0,0,0-.89-.78,2.41,2.41,0,0,0-2,0,2.72,2.72,0,0,0-.84.63,3.28,3.28,0,0,0-.61,1.08,4.8,4.8,0,0,0-.23,1.56,4.14,4.14,0,0,0,.24,1.5,3,3,0,0,0,.62,1,2.26,2.26,0,0,0,.87.58,2.68,2.68,0,0,0,1.53.12,4,4,0,0,0,.56-.17,2.86,2.86,0,0,0,.52-.27,2.44,2.44,0,0,0,.42-.35l.15.09c-.06.16-.11.32-.16.48" transform="translate(-407.64 -158.75)"/><path d="M472.08,162.12c0-.48,0-1-.07-1.47l.43,0,.51,0,.51,0,.42,0c0,.49-.05,1-.06,1.47s0,1,0,1.69v1.54q0,.94,0,1.68c0,.49,0,1,.06,1.45a2.77,2.77,0,0,0-.42,0h-1a2.81,2.81,0,0,0-.43,0c0-.48.06-1,.07-1.45s0-1.05,0-1.68v-1.54c0-.64,0-1.2,0-1.69" transform="translate(-407.64 -158.75)"/><path d="M476.85,160h.23c.24,0,.39-.13.39-.33s-.16-.32-.4-.32a.88.88,0,0,0-.22,0Zm-.23-.79a2.76,2.76,0,0,1,.44,0,.7.7,0,0,1,.5.15.41.41,0,0,1,.14.33.46.46,0,0,1-.33.44h0a.47.47,0,0,1,.26.35,2.23,2.23,0,0,0,.13.48h-.23a2.13,2.13,0,0,1-.12-.42c-.05-.24-.14-.33-.35-.34h-.21V161h-.23Z" transform="translate(-407.64 -158.75)"/><path d="M476.28,159.33a1.17,1.17,0,1,0,.82-.34,1.16,1.16,0,0,0-.82.34m-.58.82a1.4,1.4,0,1,1,1.4,1.4,1.4,1.4,0,0,1-1.4-1.4" transform="translate(-407.64 -158.75)"/><text class="cls-2" transform="translate(20.9 15.43)">Женская обувь и аксессуары</text><g class="cls-3"><path d="M413.24,162.72l-.36-.92a4.14,4.14,0,0,1-.32-1.23c0-.46.34-1.16,2-1v-.7h-6.89v.7c1.89.07,2.25,1.32,2.82,2.68l1.07,2.6a6.69,6.69,0,0,1,1.71-2.09m7.19.44-.21-.18a4.89,4.89,0,0,0-3.53-1.4c-3.51,0-5.95,3.22-5.95,7,0,4,2.58,6.92,6.23,6.92a6.11,6.11,0,0,0,5.42-3.42l-.76-.47a5.06,5.06,0,0,1-4.37,2.91c-1.68,0-4.39-1.06-4.39-5.84,0-2.94,1-6.1,4-6.1,1.4,0,2.66.42,3.13,1.61a15.27,15.27,0,0,1,.49,1.78l1.52-3.38c.84-1.87,1.18-2.91,3.19-3v-.7H419v.7c1.49-.07,2.12.67,2.12,1.46a4.46,4.46,0,0,1-.35,1.22Zm-3.57,8.91-3-7.64a8.7,8.7,0,0,0-.91,3.95l2,4.8,1.89,0Z" transform="translate(-407.64 -158.75)"/></g></g></g></svg>