<?xml version="1.0" encoding="utf-8"?><svg version="1.1" id="Layer_1" xmlns="http://www.w3.org/2000/svg" xmlns:xlink="http://www.w3.org/1999/xlink" x="0px" y="0px" viewBox="0 0 26 10" style="enable-background:new 0 0 26 10;" xml:space="preserve"><g id="XMLID_31_"><g id="XMLID_60_"><path id="XMLID_64_" d="M18.1,4.9l1.2,2.4c0,0,0,0.1,0,0.1l0.8-3.7l-1,0L18.1,4.9z M19.9,4l-0.6,2.6L18.5,5l0.9-1L19.9,4z"/><path id="XMLID_61_" d="M25.4,1.6c-0.1-0.1-0.3-0.2-0.4-0.3c-0.1,0-0.2,0-0.2,0v0l-6.5,0v0c-0.1,0-0.2,0-0.3,0.1c-0.1,0-0.2,0.1-0.3,0.2l-0.8,0.9l-0.6-1.1c0,0,0,0,0-0.1l0,0c0,0,0,0,0,0C16,1,15.9,0.7,15.7,0.6c-0.2-0.2-0.4-0.3-0.8-0.3h-0.9c-0.2,0-0.4,0.1-0.6,0.2c-0.2,0.1-0.3,0.3-0.4,0.4c0,0.1-0.1,0.1-0.1,0.2c0,0,0,0.1,0,0.1l-3.8,0v0c-0.2,0-0.3,0-0.5,0.1c-0.1,0-0.1,0.1-0.2,0.1c0,0-0.1,0-0.1-0.1C8.4,1.3,8.2,1.3,8.1,1.3H6.9c-0.2,0-0.4,0.1-0.5,0.2C6.2,1.6,6.1,1.7,6,1.9L5.7,3.5L5.2,2.4C5.2,2.3,5.1,2.2,5.1,2C5,1.9,4.9,1.8,4.8,1.7C4.6,1.5,4.5,1.4,4.3,1.3C4.1,1.3,3.9,1.2,3.7,1.2H2.8c-0.2,0-0.4,0-0.5,0.1C2.1,1.4,2,1.5,1.8,1.7C1.7,1.8,1.6,1.9,1.6,2.1C1.5,2.2,1.4,2.4,1.4,2.5L0.3,7.4c0,0.1,0,0.1,0,0.2c0,0.2,0.1,0.4,0.2,0.5C0.6,8.2,0.8,8.3,1,8.4c0.1,0,0.1,0,0.2,0h1.3c0.2,0,0.4-0.1,0.5-0.2c0.1-0.1,0.2-0.3,0.3-0.5l0.4-1.6L4,7.3c0.1,0.1,0.1,0.3,0.2,0.4C4.2,7.8,4.3,7.9,4.5,8C4.6,8.2,4.8,8.3,5,8.3c0.2,0.1,0.4,0.1,0.6,0.1h0.9c0.2,0,0.4,0,0.5-0.1C7.1,8.3,7.2,8.2,7.4,8c0,0,0.1,0,0.1,0.1c0.1,0.1,0.3,0.2,0.4,0.2C8,8.4,8.2,8.4,8.3,8.4h2.8c0,0.1-0.1,0.1-0.1,0.2C11,8.7,11,8.8,11,8.9h0c0,0.2,0.1,0.4,0.2,0.5c0.1,0.2,0.3,0.3,0.4,0.3c0.1,0,0.2,0.1,0.3,0.1v0H13c0.3,0,0.5-0.1,0.7-0.2c0.2-0.1,0.4-0.3,0.5-0.5l1.8-2L16.5,8c0.1,0.1,0.2,0.3,0.3,0.3c0.1,0.1,0.3,0.1,0.4,0.1v0h1.7v0c0.2,0,0.4-0.1,0.5-0.2c0,0,0,0,0,0c0,0,0,0,0,0c0.1,0.1,0.3,0.2,0.5,0.2l1.4,0c0.2,0,0.4-0.1,0.5-0.2c0.1-0.1,0.2-0.3,0.3-0.5L23,4l1.4,0c0.2,0,0.4-0.1,0.5-0.2c0.1-0.1,0.2-0.3,0.3-0.4l0.3-1.1c0-0.1,0-0.2,0-0.2C25.5,1.9,25.5,1.7,25.4,1.6z M25.2,2.2l-0.3,1.1c-0.1,0.2-0.3,0.4-0.5,0.4l-1.6,0l-0.9,4c-0.1,0.3-0.3,0.4-0.5,0.4l-1.4,0c-0.3,0-0.5-0.2-0.5-0.4c-0.1,0.2-0.3,0.4-0.5,0.4h-1.7c-0.2,0-0.4-0.1-0.5-0.3l-0.6-1.1c0,0-0.1,0.1-0.1,0.1L14,9c-0.3,0.3-0.6,0.6-1.1,0.6l-1.1,0c-0.5,0-0.8-0.5-0.6-0.9c0-0.1,0.1-0.3,0.2-0.4l0.1-0.2H8.3C8.1,8.1,7.8,8,7.6,7.9C7.5,7.8,7.4,7.7,7.4,7.6c0,0.1-0.1,0.1-0.2,0.2C7,8,6.7,8.2,6.4,8.2H5.5c-0.3,0-0.6-0.1-0.9-0.3C4.5,7.6,4.4,7.4,4.3,7.2L3.5,5.2L2.9,7.7c0,0.3-0.3,0.5-0.5,0.5H1.1c-0.4,0-0.6-0.3-0.5-0.7l1.1-4.9C1.7,2.3,1.8,2.1,2,1.9c0.2-0.2,0.5-0.3,0.8-0.3h0.9c0.3,0,0.6,0.1,0.9,0.3C4.8,2,4.9,2.3,5,2.5l0.8,1.9L6.3,2c0.1-0.3,0.3-0.4,0.5-0.4h1.3c0.2,0,0.3,0.1,0.4,0.2C8.7,1.6,9,1.5,9.2,1.5l4.1,0c0-0.1,0-0.1,0-0.2c0-0.1,0-0.2,0.1-0.4c0.1-0.3,0.4-0.4,0.7-0.4h0.9c0.5,0,0.7,0.4,0.9,0.7c0,0,0,0.1,0,0.1l0.8,1.5l1.1-1.2c0.1-0.1,0.3-0.2,0.4-0.2l6.5,0C25.1,1.5,25.3,1.9,25.2,2.2z"/></g><path id="XMLID_55_" d="M4.6,2.7l1.3,3.2l0.9-3.8C6.7,2,6.8,2,6.9,2h1.3C8.2,2,8.3,2,8.2,2.1L7.2,7c0,0.2-0.1,0.4-0.3,0.5C6.8,7.7,6.6,7.7,6.4,7.7H5.5c-0.3,0-0.4-0.1-0.6-0.2C4.8,7.4,4.7,7.2,4.6,7L3.4,3.8L2.5,7.6c0,0.1-0.1,0.1-0.1,0.1H1.1C1,7.7,1,7.6,1,7.5l1.1-4.9c0-0.2,0.1-0.4,0.3-0.5C2.5,2,2.6,1.9,2.8,1.9h0.9C4,1.9,4.2,2,4.3,2.1C4.4,2.3,4.5,2.4,4.6,2.7L4.6,2.7z M17.6,4.9L19,7.5c0,0.1,0,0.2-0.1,0.2h-1.7c-0.1,0-0.1,0-0.1-0.1l-0.7-1.4L17.6,4.9L17.6,4.9z M24.8,2.1c0-0.1,0-0.2-0.1-0.2l-6.5,0c0,0-0.1,0-0.1,0.1l-1.2,1.4l0.7,1.3l0.1,0.3l1.4-1.6l1.7,0l-0.9,4.3c0,0.1,0,0.2,0.1,0.2l1.4,0c0.1,0,0.1-0.1,0.1-0.1l1-4.3l2,0c0.1,0,0.1,0,0.1-0.1L24.8,2.1L24.8,2.1z M7.6,6.5C7.4,7.7,8.3,7.7,8.3,7.7h3.9c0,0,0.1,0,0.1,0l1-1.1c0.1-0.1,0-0.2-0.1-0.2H9.3L10,3.3l4.1,0c0,0,0,0,0.1,0c0.1,0,0.1-0.1,0.1-0.2L13.7,2c0,0-0.1-0.1-0.1-0.1l-4.3,0c-0.4,0-0.7,0.3-0.8,0.7L7.6,6.5z"/><path id="XMLID_8_" d="M10.3,4.1l4.8,0l-1.3-2.5c0,0,0,0,0,0c0-0.1,0-0.1,0-0.2c0-0.1,0-0.1,0-0.2C13.8,1,13.9,1,14.1,1h0.9c0.3,0,0.5,0.3,0.6,0.5c0,0,0,0.1,0.1,0.1l1.7,3.2c0,0.1,0,0.1,0,0.2c0,0-1.4,1.5-1.5,1.6l-2,2.2c-0.2,0.2-0.4,0.5-0.7,0.5l-1.1,0c-0.2,0-0.3-0.2-0.2-0.4c0-0.1,0.1-0.2,0.2-0.3l2.9-3.2H10c-0.1,0-0.1-0.1-0.1-0.1c0,0,0,0,0,0l0.2-1C10.1,4.1,10.2,4.1,10.3,4.1z"/><g id="XMLID_32_"><defs><path id="XMLID_33_" d="M1.4,5.6C2,5.5,2.5,5.4,3,5.4L2.5,7.6c0,0.1-0.1,0.1-0.1,0.1H1.1C1,7.7,1,7.6,1,7.5L1.4,5.6L1.4,5.6z M3.9,5.3C4.5,5.2,5,5.1,5.6,5.1l0.3,0.8L6.1,5c0.5,0,1.1-0.1,1.6-0.1L7.2,7c0,0.2-0.1,0.4-0.3,0.5C6.8,7.7,6.6,7.7,6.4,7.7H5.5c-0.3,0-0.4-0.1-0.6-0.2C4.8,7.4,4.7,7.2,4.6,7L3.9,5.3L3.9,5.3z M8,4.9L7.6,6.5C7.4,7.7,8.3,7.7,8.3,7.7h3.9c0,0,0.1,0,0.1,0l1-1.1c0.1-0.1,0-0.2-0.1-0.2l-3.9,0l0.3-1.5C9.1,4.8,8.5,4.9,8,4.9L8,4.9z M10,4.8c1,0,2-0.1,2.9-0.1c1.4,0,2.9,0,4.3,0.1c0,0,0,0,0,0.1c0,0-1.4,1.5-1.5,1.6l-2,2.2c-0.2,0.2-0.4,0.5-0.7,0.5l-1.1,0c-0.2,0-0.3-0.2-0.2-0.4c0-0.1,0.1-0.2,0.2-0.3l2.9-3.2H10c-0.1,0-0.1-0.1-0.1-0.1c0,0,0,0,0,0L10,4.8L10,4.8z M17.6,4.9L17.6,4.9L17.6,4.9L17.6,4.9L17.6,4.9z M20.3,5.1c0.6,0.1,1.1,0.1,1.7,0.2l-0.5,2.3c0,0.1-0.1,0.1-0.1,0.1l-1.4,0c-0.1,0-0.2-0.1-0.1-0.2L20.3,5.1L20.3,5.1z M17.6,4.9l-1.3,1.4l0.7,1.4c0,0,0.1,0.1,0.1,0.1h1.7C19,7.7,19,7.6,19,7.5L17.6,4.9z"/></defs><use xlink:href="#XMLID_33_"  style="overflow:visible;"/><clipPath id="XMLID_63_"><use xlink:href="#XMLID_33_"  style="overflow:visible;"/></clipPath></g></g></svg>