<?xml version="1.0" encoding="utf-8"?><svg version="1.1" id="Layer_1" xmlns="http://www.w3.org/2000/svg" xmlns:xlink="http://www.w3.org/1999/xlink" x="0px" y="0px" viewBox="0 0 90.8 20" style="enable-background:new 0 0 90.8 20;" xml:space="preserve"><style type="text/css">.st0{fill:#050505;}</style><path id="XMLID_69_" class="st0" d="M36.9,17.5c0.2,0.2,0.5,0.4,0.8,0.4c0.4,0,0.6-0.2,0.6-0.5c0-0.7-1.6-0.6-1.6-1.6c0-0.6,0.5-0.9,1.1-0.9c0.3,0,0.7,0.1,0.9,0.3l-0.2,0.4c-0.2-0.2-0.5-0.3-0.7-0.3c-0.3,0-0.6,0.2-0.6,0.5c0,0.7,1.6,0.5,1.6,1.6c0,0.5-0.4,1-1.1,1c-0.4,0-0.8-0.2-1.1-0.4L36.9,17.5z"/><path id="XMLID_144_" class="st0" d="M41.2,16.9l-0.4-1.1c-0.1-0.2-0.1-0.5-0.1-0.5h0c0,0-0.1,0.3-0.1,0.5l-0.4,1.1H41.2z M40.5,14.9h0.5l1.2,3.3h-0.5l-0.3-1h-1.3l-0.3,1h-0.5L40.5,14.9z"/><path id="XMLID_66_" class="st0" d="M42.3,14.9h0.5l0.8,2.4c0.1,0.2,0.1,0.5,0.1,0.5h0c0,0,0.1-0.3,0.1-0.5l0.8-2.4h0.5L44,18.3h-0.5L42.3,14.9z"/><path id="XMLID_140_" class="st0" d="M47.1,17.9c0.7,0,1.2-0.4,1.2-1.3c0-0.8-0.5-1.3-1.2-1.3h-0.6v2.5H47.1z M46,14.9h1.1c1,0,1.7,0.6,1.7,1.7c0,1.1-0.7,1.7-1.7,1.7H46V14.9z"/><path id="XMLID_137_" class="st0" d="M51.2,17.9c0.7,0,1.2-0.6,1.2-1.3c0-0.7-0.5-1.3-1.2-1.3c-0.7,0-1.2,0.6-1.2,1.3C50,17.3,50.5,17.9,51.2,17.9 M51.2,14.9c1,0,1.7,0.7,1.7,1.7c0,1-0.7,1.8-1.7,1.8c-1,0-1.7-0.8-1.7-1.8C49.5,15.6,50.2,14.9,51.2,14.9"/><path id="XMLID_61_" class="st0" d="M55.4,14.9h0.5l0.8,1.8c0.1,0.2,0.2,0.4,0.2,0.4h0c0,0,0.1-0.3,0.2-0.4l0.8-1.8h0.5l0.3,3.3h-0.5l-0.2-2.1c0-0.2,0-0.5,0-0.5h0c0,0-0.1,0.3-0.2,0.5l-0.7,1.5h-0.4L56,16.2c-0.1-0.2-0.2-0.5-0.2-0.5h0c0,0,0,0.3,0,0.5l-0.2,2.1h-0.5L55.4,14.9z"/><path id="XMLID_133_" class="st0" d="M61.1,16.9l-0.4-1.1c-0.1-0.2-0.1-0.5-0.1-0.5h0c0,0-0.1,0.3-0.1,0.5l-0.4,1.1H61.1z M60.4,14.9h0.5l1.2,3.3h-0.5l-0.3-1H60l-0.3,1h-0.5L60.4,14.9z"/><path id="XMLID_130_" class="st0" d="M64,16.5c0.4,0,0.6-0.2,0.6-0.6c0-0.2-0.1-0.4-0.3-0.5c-0.1,0-0.2-0.1-0.4-0.1h-0.6v1.2H64z M62.8,14.9h1.1c0.3,0,0.5,0,0.6,0.1c0.3,0.1,0.5,0.4,0.5,0.9c0,0.4-0.2,0.8-0.6,0.9v0c0,0,0,0,0.1,0.2l0.7,1.3h-0.5L64,17h-0.7v1.3h-0.5V14.9z"/><polygon id="XMLID_56_" class="st0" points="66,14.9 66.5,14.9 66.5,16.4 67,16.4 67.8,14.9 68.3,14.9 67.4,16.5 67.4,16.5 68.4,18.3 67.9,18.3 67,16.8 66.5,16.8 66.5,18.3 66,18.3 "/><path id="XMLID_126_" class="st0" d="M70.7,16.9l-0.4-1.1c-0.1-0.2-0.1-0.5-0.1-0.5h0c0,0-0.1,0.3-0.1,0.5l-0.4,1.1H70.7z M70,14.9h0.5l1.2,3.3h-0.5l-0.3-1h-1.3l-0.3,1h-0.5L70,14.9z"/><path id="XMLID_53_" class="st0" d="M72.2,18l1.6-2.3c0.1-0.2,0.2-0.3,0.2-0.3v0c0,0-0.1,0-0.2,0h-1.5v-0.4h2.3v0.3L73,17.6c-0.1,0.2-0.2,0.3-0.2,0.3v0c0,0,0.1,0,0.2,0h1.6v0.4h-2.4V18z"/><rect id="XMLID_52_" x="75.5" y="14.9" class="st0" width="0.5" height="3.3"/><path id="XMLID_51_" class="st0" d="M30.4,8.8c0.4,0.4,1.1,1,1.7,1.1c0.5,0.1,0.7-0.5,0.6-0.8c-0.5-0.8-3-0.5-3-2.6c0-1.3,1.2-2,2.6-2c0.8,0,1.5,0.2,2.3,0.7l-0.7,1.5c-0.4-0.5-1.1-1-1.6-1c-0.8,0-0.7,0.6-0.6,0.7c0.5,0.8,3,0.5,3,2.6c0,1.2-1,2.1-2.6,2.1c-0.9,0-1.8-0.3-2.6-0.9L30.4,8.8z"/><path id="XMLID_50_" class="st0" d="M51.7,4.6c-0.1-0.6,0.3-1.1,0.9-1.1c0.7,0,1.5,0.7,1.9,1.2L55.5,3c-0.8-0.7-1.8-1-2.7-1c-1.8,0-3.2,1.1-3.2,2.7c0,2.7,3.7,2.6,3.9,3.8c0.1,0.5-0.2,1.1-0.9,1.1c-0.8,0-1.7-0.9-2.1-1.3l-1.1,1.6c0.8,0.8,2,1.3,3.2,1.3c2,0,3.1-1.3,3.1-2.7C55.5,5.6,51.9,5.9,51.7,4.6"/><polygon id="XMLID_49_" class="st0" points="25.3,9.1 25.3,7.3 28,7.3 28,5.7 25.3,5.7 25.3,4 28.7,4 28.7,2.2 25.3,2.2 23.2,2.2 23.2,11 25.3,11 28.8,11 28.8,9.1 "/><path id="XMLID_48_" class="st0" d="M88.6,4.8c-0.7,0.4-0.9,1-0.9,1l-0.5-1.2h-1.7V11h2.1V8.1c0,0,0.1-1,0.8-1.3c0.7-0.3,1.4-0.2,1.4-0.2V4.6C89.8,4.6,89.3,4.4,88.6,4.8"/><path id="XMLID_47_" class="st0" d="M63,6.8c0-1-0.4-2.3-2.1-2.3c-1.5,0-2,0.9-2,1V2.2l-2.1,0.5V11h2.1V7.7C58.8,7,59,6,60.1,6c0.7,0,0.7,0.9,0.7,0.9V11H63L63,6.8L63,6.8z"/><path id="XMLID_46_" class="st0" d="M77.4,6.8c0-1-0.4-2.3-2.1-2.3c-1.5,0-2,0.9-2,1V2.2l-2.1,0.5V11h2.1V7.7C73.3,7,73.4,6,74.6,6c0.7,0,0.7,0.9,0.7,0.9V11h2.1L77.4,6.8L77.4,6.8z"/><path id="XMLID_45_" class="st0" d="M73.2,8.1V7.8C73.2,7.9,73.2,8,73.2,8.1"/><path id="XMLID_44_" class="st0" d="M40.1,7.5l2-2.9H40l-1.3,1.8c0,0-0.2,0.3-0.7,0.3V2.2l-2.1,0.5V11h2.1V8.5h0.7l1.3,2.5h2.4L40.1,7.5z"/><path id="XMLID_113_" class="st0" d="M66.6,9.6c-0.4,0-0.7-0.3-0.7-0.6c0-0.8,0.9-0.9,1.7-0.9h0.2v0.2C67.8,8.9,67.3,9.6,66.6,9.6 M69.8,11c0,0-0.1-1-0.1-1.4V6.8c0-1-0.2-2.3-2.8-2.3c-1.5,0-2.7,0.8-2.7,0.8L65,6.8c0,0,0.7-1,2-1c0.9,0,0.8,1,0.8,1V7c0,0-3.9-0.2-3.9,2.2c0,0,0,1.9,2.1,1.9c1,0,1.5-0.5,1.9-1V11H69.8z"/><rect id="XMLID_41_" x="43" y="4.6" class="st0" width="2.1" height="6.3"/><rect id="XMLID_40_" x="43.3" y="2.3" transform="matrix(0.7071 0.7071 -0.7071 0.7071 15.0906 -30.2834)" class="st0" width="1.5" height="1.5"/><path id="XMLID_108_" class="st0" d="M81,9.6c-0.4,0-0.7-0.3-0.7-0.6c0-0.8,0.9-0.9,1.7-0.9h0.2v0.2C82.2,8.9,81.7,9.6,81,9.6 M84.2,11c0,0-0.1-1-0.1-1.4V6.8c0-1-0.2-2.3-2.8-2.3c-1.5,0-2.7,0.8-2.7,0.8l0.7,1.5c0,0,0.7-1,2-1c0.9,0,0.8,1,0.8,1V7c0,0-3.9-0.2-3.9,2.2c0,0,0,1.9,2.1,1.9c1,0,1.5-0.5,1.9-1V11H84.2z"/><path id="XMLID_37_" class="st0" d="M10,8c0.3,0,0.6,0,0.8,0c0,0,0.1,0,0.1,0c0.4,0.4,0.8,0.8,1.2,1.2c0,0,0,0.1,0,0.1c0,0.6,0,1.1,0,1.7c0,0,0,0.1,0,0.1c-0.4,0.4-0.8,0.8-1.2,1.2c0,0-0.1,0-0.1,0c-0.6,0-1.1,0-1.7,0c0,0-0.1,0-0.1,0c-0.4-0.4-0.8-0.8-1.2-1.2c0,0,0-0.1,0-0.1c0-0.6,0-1.1,0-1.7c0,0,0-0.1,0-0.1C8.2,8.8,8.6,8.4,9,8c0,0,0.1,0,0.1,0C9.4,8,9.7,8,10,8"/><path id="XMLID_36_" class="st0" d="M6.8,7.5c-0.6,0-1.1,0.1-1.6,0.3c-0.1,0-0.1,0-0.1-0.1C4.9,7.4,4.9,7,4.8,6.7c0-0.5,0-0.9,0.1-1.4C5,5.2,5,5.2,5,5.2C5.5,5.1,6,5,6.5,5.1c0.4,0,0.7,0.1,1.1,0.2c0,0,0.1,0,0,0.1C7.4,6,7.3,6.6,7.3,7.2c0,0.1,0,0.2,0,0.2c0,0.1,0,0.1-0.1,0.1C7.1,7.5,7,7.5,6.8,7.5"/><path id="XMLID_35_" class="st0" d="M6.2,10.2C6.2,10.2,6.1,10.2,6.2,10.2c-0.2,0.2-0.4,0.4-0.6,0.6c-0.3,0.3-0.5,0.7-0.7,1c0,0.1,0,0.1-0.1,0c-0.6-0.3-1.2-0.8-1.6-1.4c-0.1-0.1-0.1-0.2-0.2-0.3c0,0,0-0.1,0-0.1C3.4,9.4,4,8.8,4.8,8.4c0.1,0,0.1,0,0.1,0C5,8.8,5.2,9.1,5.4,9.3C5.6,9.6,5.9,9.9,6.2,10.2C6.1,10.1,6.2,10.2,6.2,10.2"/><path id="XMLID_34_" class="st0" d="M15.1,6.2c0,0.6-0.1,1-0.2,1.5c0,0,0,0.1-0.1,0c-0.4-0.1-0.7-0.2-1.1-0.3c-0.3,0-0.6,0-0.8,0c-0.1,0-0.2,0-0.2,0c0,0,0-0.1,0-0.2c0-0.5,0-1-0.2-1.5c0-0.1-0.1-0.2-0.1-0.4c0-0.1,0-0.1,0-0.1c0.3-0.1,0.7-0.2,1-0.2c0.3,0,0.6,0,0.9,0c0.2,0,0.4,0.1,0.6,0.1c0.1,0,0.1,0,0.1,0.1C15,5.6,15.1,5.9,15.1,6.2"/><path id="XMLID_33_" class="st0" d="M11.7,5C11.7,5.1,11.7,5.1,11.7,5c-0.4,0.2-0.7,0.4-1,0.7c-0.2,0.2-0.4,0.4-0.7,0.6c-0.1,0.1-0.1,0-0.1,0C9.6,6.1,9.3,5.8,9,5.5C8.7,5.4,8.5,5.2,8.2,5.1c0,0-0.1,0,0-0.1c0.4-0.8,1-1.4,1.7-1.8c0,0,0.1,0,0.1,0C10.7,3.6,11.3,4.2,11.7,5C11.7,5,11.7,5,11.7,5"/><path id="XMLID_32_" class="st0" d="M13.1,12.9c0.6,0,1.1-0.1,1.7-0.3c0.1,0,0.1,0,0.1,0c0.2,0.6,0.3,1.2,0.2,1.8c0,0.2-0.1,0.5-0.1,0.7c0,0,0,0.1-0.1,0.1c-0.4,0.1-0.8,0.1-1.2,0.1c-0.4,0-0.9-0.1-1.3-0.2c0,0-0.1,0-0.1-0.1c0.2-0.6,0.3-1.2,0.3-1.8c0-0.1,0-0.2,0-0.3c0-0.1,0-0.1,0.1-0.1C12.8,12.9,13,12.9,13.1,12.9"/><path id="XMLID_31_" class="st0" d="M11.7,15.3C11.7,15.3,11.7,15.3,11.7,15.3c-0.4,0.8-1,1.4-1.7,1.9c-0.1,0-0.1,0-0.1,0c-0.7-0.5-1.3-1.1-1.7-1.9c0,0,0-0.1,0-0.1c0.6-0.3,1.1-0.7,1.6-1.2c0.1-0.1,0.1-0.1,0.2,0c0.3,0.3,0.7,0.7,1.1,0.9C11.3,15.1,11.5,15.2,11.7,15.3C11.7,15.3,11.7,15.3,11.7,15.3"/><path id="XMLID_30_" class="st0" d="M15.1,11.9C15,11.9,15,11.9,15.1,11.9c-0.2-0.4-0.4-0.6-0.6-0.9c-0.2-0.3-0.5-0.6-0.7-0.8c-0.1-0.1,0-0.1,0-0.1c0.3-0.3,0.6-0.6,0.9-1c0.1-0.2,0.3-0.4,0.4-0.6c0-0.1,0-0.1,0.1,0c0.8,0.4,1.4,0.9,1.8,1.7c0,0.1,0,0.1,0,0.1C16.5,11,15.9,11.5,15.1,11.9C15.1,11.9,15.1,11.9,15.1,11.9"/><path id="XMLID_29_" class="st0" d="M7.3,13.2c0,0.6,0.1,1.2,0.3,1.7c0,0.1,0,0.1,0,0.1c-0.4,0.1-0.8,0.2-1.3,0.2c-0.4,0-0.8,0-1.2-0.1c-0.1,0-0.1,0-0.1-0.1c-0.2-0.8-0.1-1.7,0.1-2.5c0-0.1,0-0.1,0.1-0.1c0.5,0.2,1.1,0.3,1.7,0.3c0.1,0,0.3,0,0.4,0c0,0,0.1,0,0.1,0.1C7.3,13,7.3,13.1,7.3,13.2"/><path id="XMLID_28_" class="st0" d="M3.2,2.2h0.1h2.4c0.1,0,0.1,0,0.1,0.1C5.6,3.1,5.2,3.6,4.4,3.8c-0.1,0-0.1,0-0.2,0c-0.1,0-0.1,0-0.1-0.1C4.1,3.6,4,3.5,4,3.3C3.8,2.9,3.6,2.5,3.2,2.2C3.2,2.2,3.2,2.2,3.2,2.2"/><path id="XMLID_27_" class="st0" d="M16.7,2.2c-0.1,0.1-0.1,0.1-0.2,0.2c-0.3,0.3-0.5,0.6-0.6,1c-0.1,0.2-0.1,0.3-0.1,0.5c0,0.1,0,0.1-0.1,0.1c-0.8-0.2-1.4-0.7-1.6-1.5c0-0.2,0-0.2,0.1-0.2C15.1,2.2,15.9,2.2,16.7,2.2C16.7,2.2,16.7,2.2,16.7,2.2"/><path id="XMLID_26_" class="st0" d="M16.7,18.2h-0.1h-2.4c-0.1,0-0.1,0-0.1-0.1c0.2-0.8,0.8-1.4,1.6-1.6c0.1,0,0.1,0,0.1,0.1c0,0.2,0.1,0.4,0.2,0.6c0.1,0.3,0.3,0.6,0.6,0.9C16.6,18.1,16.7,18.1,16.7,18.2"/><path id="XMLID_25_" class="st0" d="M3.2,18.2c0.1-0.1,0.3-0.2,0.4-0.4C3.9,17.5,4,17,4.1,16.6c0-0.1,0-0.1,0.1-0.1c0.8,0.1,1.5,0.8,1.6,1.6c0,0.1,0,0.1-0.1,0.1c-0.6,0-1.1,0-1.7,0C3.8,18.2,3.5,18.2,3.2,18.2C3.2,18.2,3.2,18.2,3.2,18.2"/><path id="XMLID_24_" class="st0" d="M17.9,3.5v0.1V6c0,0.1,0,0.1-0.1,0.1c-0.8-0.2-1.4-0.8-1.6-1.6c0,0,0-0.1,0-0.1c0.2,0,0.4-0.1,0.6-0.2C17.3,4,17.6,3.8,17.9,3.5C17.9,3.5,17.9,3.5,17.9,3.5"/><path id="XMLID_23_" class="st0" d="M17.9,16.9c-0.1-0.1-0.2-0.2-0.2-0.3c-0.3-0.3-0.6-0.5-1-0.6c-0.1,0-0.3-0.1-0.4-0.1c0,0-0.1,0,0-0.1c0.1-0.4,0.2-0.7,0.4-1c0.3-0.3,0.7-0.6,1.1-0.7c0.1,0,0.1,0,0.1,0.1C18,15.2,18,16,17.9,16.9C18,16.9,18,16.9,17.9,16.9"/><path id="XMLID_22_" class="st0" d="M2,3.5c0.1,0.1,0.2,0.2,0.2,0.3C2.6,4.1,3,4.3,3.5,4.4c0,0,0,0,0,0c0.1,0,0.1,0,0.1,0.1C3.4,5.3,2.9,5.8,2.1,6C2,6.1,2,6.1,2,5.9C2,5.1,2,4.3,2,3.5C2,3.5,2,3.5,2,3.5"/><path id="XMLID_21_" class="st0" d="M11.6,7.5c-0.2,0-0.3,0-0.5,0c0,0-0.1,0-0.1,0c-0.2-0.2-0.5-0.5-0.7-0.7c0,0,0,0,0-0.1c0.5-0.5,0.9-0.9,1.5-1.2c0.1,0,0.1,0,0.1,0c0.1,0.4,0.2,0.8,0.2,1.2c0,0.2,0,0.5,0,0.7c0,0.1,0,0.1-0.1,0.1C11.9,7.5,11.8,7.5,11.6,7.5"/><path id="XMLID_20_" class="st0" d="M8.3,7.5c-0.2,0-0.3,0-0.5,0c0,0-0.1,0-0.1-0.1c0-0.6,0-1.1,0.2-1.7C7.9,5.7,8,5.6,8,5.5c0,0,0-0.1,0.1,0c0.3,0.2,0.7,0.4,1,0.6c0.2,0.2,0.4,0.4,0.6,0.6c0,0,0,0,0,0.1C9.4,7,9.1,7.3,8.9,7.5c0,0-0.1,0-0.1,0C8.6,7.5,8.5,7.5,8.3,7.5"/><path id="XMLID_19_" class="st0" d="M7.3,8.5c0,0.2,0,0.3,0,0.5c0,0,0,0.1,0,0.1C7,9.4,6.8,9.6,6.5,9.8c0,0,0,0-0.1,0c-0.3-0.3-0.7-0.7-0.9-1C5.4,8.6,5.4,8.5,5.3,8.3c0,0,0-0.1,0-0.1C5.6,8.1,5.9,8,6.2,8c0.3,0,0.6,0,1,0C7.3,8,7.3,8,7.3,8C7.3,8.2,7.3,8.4,7.3,8.5"/><path id="XMLID_18_" class="st0" d="M8.3,12.9c0.2,0,0.3,0,0.5,0c0,0,0.1,0,0.1,0c0.2,0.2,0.5,0.5,0.7,0.7c0,0,0.1,0,0,0.1c-0.3,0.3-0.7,0.7-1.1,0.9c-0.2,0.1-0.3,0.2-0.5,0.3c0,0-0.1,0-0.1,0c-0.1-0.3-0.2-0.7-0.2-1c0-0.3,0-0.6,0-0.9c0-0.1,0-0.1,0.1-0.1C8,12.9,8.1,12.9,8.3,12.9"/><path id="XMLID_17_" class="st0" d="M7.3,11.8c0,0.2,0,0.3,0,0.5c0,0,0,0.1-0.1,0.1c-0.6,0-1.3,0-1.9-0.2c-0.1,0-0.1,0,0-0.1c0.2-0.4,0.5-0.8,0.9-1.2c0.1-0.1,0.2-0.2,0.3-0.3c0,0,0.1,0,0.1,0C6.8,10.8,7,11,7.3,11.3c0,0,0,0.1,0,0.1C7.3,11.5,7.3,11.7,7.3,11.8"/><path id="XMLID_16_" class="st0" d="M12.6,8.5c0-0.2,0-0.3,0-0.5c0,0,0-0.1,0.1-0.1c0.5,0,1.1,0,1.6,0.2c0.1,0,0.2,0.1,0.3,0.1c0,0,0.1,0,0,0.1c-0.2,0.3-0.4,0.7-0.6,0.9c-0.2,0.2-0.4,0.4-0.6,0.6c0,0,0,0-0.1,0c-0.2-0.2-0.5-0.5-0.7-0.7c0,0,0-0.1,0-0.1C12.6,8.9,12.6,8.7,12.6,8.5"/><path id="XMLID_15_" class="st0" d="M12.6,11.8c0-0.2,0-0.3,0-0.5c0,0,0-0.1,0-0.1c0.2-0.2,0.5-0.5,0.7-0.7c0,0,0,0,0.1,0c0.3,0.3,0.7,0.7,0.9,1.1c0.1,0.2,0.2,0.3,0.3,0.5c0,0,0,0.1,0,0.1c-0.3,0.1-0.6,0.2-1,0.2c-0.3,0-0.6,0-1,0c-0.1,0-0.1,0-0.1-0.1C12.6,12.2,12.6,12,12.6,11.8"/><path id="XMLID_14_" class="st0" d="M11.6,12.8c0.2,0,0.3,0,0.5,0c0,0,0.1,0,0.1,0.1c0,0.5,0,1.1-0.2,1.6c0,0.1-0.1,0.2-0.1,0.3c0,0.1,0,0.1-0.1,0c-0.4-0.2-0.8-0.5-1.1-0.8c-0.1-0.1-0.3-0.3-0.4-0.4c0,0,0-0.1,0-0.1c0.2-0.2,0.5-0.5,0.7-0.7c0,0,0.1,0,0.1,0C11.3,12.8,11.4,12.8,11.6,12.8"/><path id="XMLID_13_" class="st0" d="M2,16.9C2,16.9,2,16.8,2,16.9c0-0.9,0-1.7,0-2.5c0-0.1,0-0.1,0.1-0.1c0.7,0.2,1.2,0.6,1.4,1.2c0,0.1,0.1,0.2,0.1,0.4c0,0,0,0,0,0c-0.5,0.1-0.9,0.2-1.2,0.5C2.3,16.6,2.1,16.7,2,16.9"/><path id="XMLID_12_" class="st0" d="M16.3,3.8c0-0.2,0.1-0.4,0.2-0.6c0.3-0.5,0.7-0.8,1.3-1c0.1,0,0.1,0,0.1,0.1c0,0.2-0.1,0.5-0.3,0.7c-0.2,0.3-0.4,0.5-0.7,0.6C16.8,3.7,16.6,3.8,16.3,3.8C16.3,3.9,16.3,3.9,16.3,3.8"/><path id="XMLID_11_" class="st0" d="M2,2.2c0.1,0,0.3,0.1,0.4,0.1c0.5,0.2,0.8,0.5,1,1c0.1,0.2,0.1,0.3,0.2,0.5c0,0,0,0.1-0.1,0.1c-0.6-0.1-1.1-0.5-1.4-1C2,2.7,2,2.5,2,2.2C2,2.2,2,2.2,2,2.2"/><path id="XMLID_10_" class="st0" d="M17.9,18C17.9,18.2,17.9,18.2,17.9,18c-0.7-0.1-1.2-0.4-1.5-1c-0.1-0.2-0.1-0.3-0.1-0.5c0,0,0-0.1,0.1-0.1c0.5,0.1,0.8,0.3,1.2,0.6C17.7,17.4,17.9,17.7,17.9,18C17.9,18,17.9,18,17.9,18"/><path id="XMLID_9_" class="st0" d="M2,18.1c0-0.2,0.1-0.3,0.1-0.5c0.3-0.6,0.7-0.9,1.3-1.1c0.1,0,0.1,0,0.2,0c0,0,0,0,0,0c-0.1,0.7-0.5,1.2-1.2,1.5C2.3,18.1,2.2,18.1,2,18.1C2,18.2,2,18.2,2,18.1"/><path id="XMLID_8_" class="st0" d="M10.4,7.5H9.5c0.1-0.1,0.2-0.1,0.2-0.2c0.1-0.1,0.1-0.1,0.2-0.2c0,0,0,0,0.1,0C10.1,7.2,10.3,7.4,10.4,7.5"/><path id="XMLID_7_" class="st0" d="M12.2,11.8c0,0.2,0,0.4,0,0.6c0,0,0,0.1-0.1,0.1c-0.2,0-0.4,0-0.6,0C11.7,12.2,12,12,12.2,11.8"/><path id="XMLID_6_" class="st0" d="M7.7,11.8C8,12,8.2,12.2,8.4,12.4H8c-0.1,0-0.1,0-0.2,0c0,0-0.1,0-0.1-0.1C7.7,12.2,7.7,12,7.7,11.8"/><path id="XMLID_5_" class="st0" d="M12.6,9.7c0.1,0.1,0.3,0.3,0.4,0.4c0,0,0,0,0,0.1c-0.1,0.1-0.3,0.3-0.4,0.4V9.7z"/><path id="XMLID_4_" class="st0" d="M7.3,10.6c-0.2-0.2-0.3-0.3-0.4-0.4C7,10,7.1,9.9,7.3,9.7V10.6z"/><path id="XMLID_3_" class="st0" d="M11.5,8c0.2,0,0.4,0,0.6,0c0,0,0,0,0,0c0,0.2,0,0.4,0,0.6C12,8.4,11.7,8.2,11.5,8"/><path id="XMLID_2_" class="st0" d="M8.4,8C8.2,8.2,8,8.4,7.7,8.6c0-0.2,0-0.4,0-0.6c0,0,0,0,0,0C8,8,8.2,8,8.4,8"/><path id="XMLID_1_" class="st0" d="M9.5,12.8h0.9c0,0-0.1,0.1-0.1,0.1c-0.1,0.1-0.2,0.2-0.3,0.3c0,0,0,0-0.1,0C9.8,13.1,9.6,13,9.5,12.8"/></svg>