<svg width="198" height="150" viewBox="0 0 198 150" fill="none" xmlns="http://www.w3.org/2000/svg">
<g clip-path="url(#clip0)">
<path fill-rule="evenodd" clip-rule="evenodd" d="M74.3217 101.262C74.413 104.149 74.5599 106.585 74.7127 108.676C74.4629 115.689 72.9796 117.527 70.7853 117.263C69.1175 117.065 67.5944 110.82 68.1737 105.602C69.3545 95.1094 73.7693 93.0918 75.4072 91.6778C76.4622 90.7662 76.7321 90.0978 76.4917 89.5074C76.2197 88.368 69.0951 87.8576 65.0995 92.5815C62.7291 95.3579 61.1167 100.388 61.8941 108.236C62.6861 116.122 66.0972 120.558 70.4033 120.391C72.0346 120.327 73.5314 119.907 75.3 118.137C75.25 119.812 74.9856 121.203 74.3363 122.663C70.3985 131.57 56.6827 126.29 57.0801 128.658C57.1165 136.027 68.8797 137.772 75.7067 129.262C78.6024 125.646 81.0784 119.2 80.9908 111.644C80.9041 103.473 80.9366 94.6936 80.2896 94.0283C79.2291 92.9392 74.1339 95.2933 74.3218 101.262L74.3217 101.262ZM154.311 92.4C153.378 92.1219 149.697 91.7034 147.7 94.0619C145.604 96.5374 144.202 102.689 144.096 103.096C142.856 107.852 141.06 115.898 141.847 119.653C142.824 124.464 146.104 124.334 148.778 123.161C151.438 121.982 153.303 118.164 153.066 117.844C152.721 117.382 151.788 118.425 150.917 119.116C149.145 120.522 148.412 120.489 147.966 120.468C147.258 120.437 149.533 109.334 151.533 102.735C153.212 97.1851 154.882 92.5658 154.311 92.4001L154.311 92.4ZM103.224 87.2717C94.5362 88.943 94.5209 105.482 96.0068 112.317C97.1501 117.527 101.115 120.098 104.995 119.339C106.915 118.963 109.404 117.84 110.851 114.463C112.29 111.105 110.016 107.289 107.777 107.049C106.81 106.967 107.368 117.027 104.16 116.271C103.015 115.998 102.139 111.835 102.318 104.079C102.488 96.3529 104.393 90.4527 105.841 90.4125C107.805 90.3511 107.958 96.5446 106.872 102.347C106.698 103.286 112.596 102.816 113.368 95.7291C113.687 92.9884 111.903 85.6893 103.224 87.2716V87.2717ZM135.444 108.314C134.645 114.652 132.886 118.927 130.743 118.622C127.884 118.213 127.875 112.167 128.249 106.685C128.355 105.133 128.564 100.433 129.378 95.8846C130.726 88.387 132.019 84.1978 133.26 81.4064C134.611 78.4042 136.476 76.524 138.199 78.6897C139.842 80.7695 138.618 92.4145 136.981 97.0283C136.47 98.4656 141.075 97.3081 142.969 95.0665C146.176 91.326 146.418 82.6848 142.581 77.939C140.187 74.9673 135.999 73.7051 131.232 75.854C123.272 79.3565 121.272 92.3295 120.399 99.2042C120.735 96.5562 118.827 108.685 121.832 115.003C122.774 116.983 124.025 118.915 126.212 120.21C128.387 121.498 131.036 122.122 134.721 120.792C137.428 119.815 140.55 115.842 139.965 112.293C139.019 107.791 135.657 106.624 135.444 108.314V108.314ZM94.135 112.048C93.4244 112.232 92.252 115.545 90.8306 115.073C90.1629 114.851 90.2457 104.415 91.0469 97.5518C91.7174 91.7803 92.6435 86.9224 91.8869 86.8673C88.1732 86.572 86.1895 88.4511 85.1546 90.8734C84.2267 93.0433 83.9037 97.139 83.7715 98.9193C83.4115 103.763 83.0564 112.397 84.5404 116.036C86.3551 120.569 89.2774 119.804 91.7117 118.162C94.8362 116.054 94.6203 111.928 94.1349 112.049L94.135 112.048ZM197.458 104.02C196.41 103.752 191.331 103.511 188.538 109.177C187.544 111.567 180.516 127.395 177.249 125.261C176.429 124.734 177.165 121.658 180.486 112.958C183.59 104.847 185.935 100.496 184.789 100.005C183.681 99.5094 177.1 99.7544 174.022 108.48C169.665 120.757 168.352 128.524 173.376 130.12C178.738 131.854 184.002 124.168 184.027 124.165C184.035 124.17 182.719 128.679 179.19 132.506C172.73 139.542 162.392 130.98 161.403 131.575C160.042 132.722 160.823 138.533 164.781 140.537C166.975 141.647 169.326 141.724 171.51 141.537C173.693 141.35 175.813 140.663 177.835 139.533C181.873 137.271 185.544 133.239 188.338 127.839C191.338 122.056 191.699 120.679 195.495 111.023C195.88 110.046 196.236 109.13 196.544 108.302C196.697 107.889 196.838 107.497 196.966 107.132C197.092 106.766 197.204 106.426 197.299 106.115C197.678 104.873 197.783 104.098 197.458 104.02H197.458ZM50.2637 119.195C49.7569 119.146 48.6774 118.324 48.8552 113.537C49.0371 108.621 51.8075 105.953 51.8105 105.957C51.8105 105.957 51.6594 107.393 51.7933 109.919C51.9264 112.409 52.6324 115.833 52.6315 115.834C52.625 115.833 51.2696 119.29 50.2636 119.195H50.2637ZM35.1302 97.6077C35.1323 97.6077 34.6581 94.2145 34.6826 89.8618C34.7059 84.7759 35.0874 78.9557 36.2812 78.8961C37.8103 78.8223 36.728 87.8575 35.8757 93.6582C35.5339 95.9219 35.1305 97.6077 35.1301 97.6077H35.1302ZM20.2265 81.1038C22.1336 80.7866 19.2954 96.9275 19.2912 97.4729C19.232 97.154 18.1598 81.4421 20.2265 81.1038ZM63.9105 117.773C63.2658 117.742 62.259 119.385 61.166 119.216C58.8659 118.864 58.6459 110.929 58.5137 103.241C58.3871 96.466 58.3501 90.2716 53.1245 89.8547C47.8304 89.4398 42.4231 93.545 42.3531 98.6897C42.2708 103.692 46.3123 104.25 46.6549 104.042C47.2085 103.7 46.711 101.691 47.7746 97.9609C48.9853 93.7313 51.5724 92.0106 52.469 92.2726C53.529 92.5862 51.863 103.148 51.8944 103.148C51.8982 103.145 48.4973 104.07 45.8845 106.854C43.6098 109.266 42.5453 113.428 42.8574 116.973C42.549 118.61 42.3935 120.718 41.3117 120.908C40.372 121.074 39.1374 117.226 37.6509 112.559C36.6095 109.296 36.2523 106.21 36.2538 106.21C36.0238 106.206 41.83 81.542 39.0113 77.009C38.1165 75.6815 36.534 75.806 35.4271 75.8399C34.751 75.8601 33.9718 76.0065 33.1671 76.4288C32.363 76.8511 31.5328 77.5494 30.7615 78.6695C29.2195 80.9103 27.9101 84.8434 27.5539 91.6125C26.9446 104.295 31.0116 115.266 30.9656 115.274C30.9435 115.276 29.576 123.186 27.7423 123.797C26.8305 124.097 24.9187 119.958 23.1907 115.087C21.2828 109.711 20.5067 104.994 20.5108 104.993C20.1958 105.002 27.7015 77.7755 20.287 78.9588C18.3727 79.27 16.8503 80.1095 15.6693 81.33C14.4881 82.5503 13.6479 84.1515 13.0823 85.9931C11.9497 89.6781 11.9182 94.3223 12.3737 98.867C13.2976 107.955 16.0794 116.67 16.0665 116.672C15.9826 116.685 15.4019 133.689 12.9382 134.164C11.4544 134.446 10.0889 131.348 8.7018 124.174C7.23652 116.597 7.34792 110.685 6.41742 110.917C4.59186 111.336 -2.05471 116.998 0.63149 125.919C0.723293 126.232 0.817815 126.537 0.914494 126.836C1.01145 127.136 1.11095 127.428 1.21278 127.714C1.41608 128.286 1.62857 128.832 1.84875 129.353C2.2891 130.395 2.76031 131.335 3.25186 132.181C4.23459 133.871 5.29769 135.181 6.3665 136.153C8.50601 138.098 10.6668 138.698 12.3352 138.256C15.5237 137.412 16.811 134.091 17.4645 130.51C18.105 126.931 18.4561 122.056 18.4587 122.055C18.4684 122.066 21.5781 129.616 26.9481 128.03C30.2847 127.061 31.439 124.139 32.167 121.779C32.5693 120.469 32.8093 119.416 32.809 119.416C32.8145 119.423 35.1512 125.764 39.5969 125.073C42.194 124.683 43.5846 123.095 44.3616 121.503C44.9206 122.266 45.6336 122.84 46.5069 123.143C51.2236 124.819 54.1747 119.68 54.2009 119.675C54.2014 119.68 55.5326 121.812 59.2679 121.953C63.3349 122.123 64.6381 117.816 63.9107 117.773L63.9105 117.773ZM168.969 121.094C170.877 116.587 166.791 112.837 166.417 113.973C164.163 121.073 162.496 124.102 161.306 123.659C160.182 123.241 161.263 117.769 162.336 113.444C164.082 106.384 166.158 100.732 166.85 98.9338C168.639 99 170.155 99.0651 170.867 99.1142C173.185 99.1613 181.798 99.4772 180.823 98.8828C179.144 97.8237 177.689 97.3296 174.877 96.5666C173.953 96.291 170.202 95.6862 167.995 95.294C169.284 92.1262 170.774 88.3446 171.973 85.891C173.349 83.0737 174.993 81.1622 173.601 81.0081C167.225 80.339 166.13 84.2265 164.017 88.2416C163.157 89.8665 162.661 91.3833 161.461 94.2424C159.858 94.0509 158.564 93.942 157.922 93.9725C155.487 94.0171 154.79 96.4527 154.503 97.4664C154.218 98.4832 155.579 98.6403 156.545 98.658C156.836 98.6442 158.064 98.6664 159.695 98.7085C158.772 101.175 158.198 102.925 158.199 102.924C157.706 104.441 157.215 105.958 156.727 107.476C156.699 107.478 152.441 123.152 156.677 125.851C160.998 128.624 166.862 126.072 168.969 121.094V121.094ZM188.217 109.877C188.32 109.634 188.427 109.401 188.538 109.177C188.756 108.652 188.684 108.774 188.217 109.877Z" fill="black"/>
<path d="M93.2621 81.287C94.369 80.0145 95.3903 77.7236 93.6034 76.279C91.7762 74.8026 85.6734 76.5283 86.1481 82.3183C86.3401 84.6652 88.262 85.4914 89.9419 85.2257C91.9247 84.9124 93.7912 82.7987 93.7912 82.7987L91.3474 83.1455C91.3474 83.1455 92.1603 82.5529 93.262 81.287H93.2621Z" fill="black"/>
<path d="M156.614 85.3042C157.555 84.0338 158.432 82.0249 156.672 80.8128C155.011 79.6627 149.507 80.603 149.22 86.224C149.078 89.0103 151.463 89.8939 153.42 89.4593C154.963 89.118 156.586 87.5039 156.586 87.5039L153.843 87.785C153.843 87.785 155.645 86.6168 156.614 85.3042Z" fill="black"/>
<path fill-rule="evenodd" clip-rule="evenodd" d="M79.4102 30.106C80.8294 31.3012 85.1611 35.1373 85.3939 35.0308C85.6261 34.9245 84.0369 32.9751 81.9978 30.9133C79.9589 28.8515 76.997 27.0356 76.7425 27.4416C76.4875 27.848 77.9911 28.9103 79.4103 30.106H79.4102ZM99.289 2.21942e-06H99.0776C98.4338 0.114686 98.8784 0.909967 99.0346 2.74668C98.3534 2.5176 97.2635 2.6862 96.309 2.97849C95.2656 3.29872 94.8321 2.84027 93.2368 2.65535C91.6411 2.47081 91.7178 2.65497 90.6491 2.97849C89.5805 3.30266 89.6682 3.99441 90.0024 3.86651C90.3362 3.73907 91.3942 3.53052 92.1045 3.62458C92.8147 3.71844 92.9132 4.1091 92.9132 4.1091C92.9132 4.1091 92.3376 4.23053 91.6195 4.51251C90.9012 4.79448 90.2965 5.34042 90.4873 5.72367C90.6788 6.10682 90.9987 5.60692 92.0239 5.23952C93.0492 4.87165 93.678 5.45248 95.0965 5.80422C96.5144 6.15671 97.2999 5.3151 98.1687 5.07776C98.5948 4.96139 98.9321 4.99881 99.1668 5.06614C99.239 6.43474 99.3238 7.8703 99.445 8.60726C99.2673 8.60951 99.0843 8.61673 98.8965 8.63004C97.291 8.74632 96.8369 9.11241 96.9561 9.67982C97.0081 9.92785 97.7716 9.98449 98.6689 9.95842C98.202 10.5644 97.7951 11.73 97.1985 13.6356C96.9467 14.4404 96.53 15.6086 96.0277 16.9312C94.0899 17.0137 92.0943 17.1648 92.1046 17.3497C92.1141 17.5132 93.6175 17.6806 95.6982 17.7905C94.2673 21.4789 92.3357 25.9746 91.3772 27.3608C89.9836 29.3759 87.9356 29.399 87.9003 30.106C87.8703 30.7043 90.5445 30.6528 92.3068 30.6095C91.953 32.1686 91.8286 36.4175 91.7935 38.0297C89.6179 38.0306 88.1566 38.0016 87.8192 38.2602C87.3979 38.5837 87.3209 39.4833 88.8703 39.6331C89.2311 39.6674 90.0571 39.6765 91.1424 39.67C90.7814 41.7228 90.7246 47.0485 90.7231 50.6301C89.8325 49.9911 89.0781 49.218 88.793 47.2628C89.6132 47.1939 90.179 47.1021 90.2449 46.9799C90.4664 46.5701 89.8964 46.3834 88.6981 46.3421C88.5231 43.8365 88.6212 42.6082 87.9811 42.5396C87.3279 42.4691 86.4388 43.5837 86.5256 45.3653C86.5407 45.6692 86.5879 45.994 86.6501 46.3257C84.6111 46.3271 81.6493 46.3433 80.0575 46.3339C79.8634 46.3326 79.6806 46.3304 79.4966 46.3284C79.6661 44.9 79.7192 43.5077 79.6094 42.8709C82.0355 42.8791 84.9746 42.8863 85.3939 42.8623C86.0931 42.8229 85.2162 42.1942 83.8574 42.055C82.4986 41.9161 77.8742 41.4898 77.8742 41.4898C77.8742 41.4898 77.7003 40.7185 81.5129 40.0366C85.3247 39.3547 87.2643 41.5387 88.143 42.2164C89.0215 42.894 90.0858 43.794 89.194 41.8125C88.3021 39.8314 85.1704 38.4782 81.1893 38.7448C77.2081 39.0114 75.7159 41.4936 75.691 42.0551C75.6664 42.616 75.6872 42.8688 76.3378 42.8624C76.5356 42.8607 77.3866 42.8637 78.4931 42.8671C78.4155 43.3946 78.2377 44.9298 78.0429 46.3092C76.8862 46.2968 76.0385 46.3139 75.6101 46.4954C74.9618 46.7706 75.2038 47.5328 75.6908 47.7066C75.9135 47.7859 76.7814 47.7427 77.832 47.6723C77.7621 48.0692 77.6943 48.3946 77.6316 48.5945C77.3891 49.3679 76.1907 50.095 75.5744 50.4259C75.5637 50.1607 75.5488 49.9289 75.5277 49.7427C75.5724 49.6199 75.6051 49.5033 75.6101 49.4019C75.6651 48.3135 74.9643 48.2521 74.3973 48.4333C73.8302 48.6144 72.8587 50.3414 71.0016 52.0663C69.5197 53.4423 66.8575 54.6754 65.8385 55.1192C65.6853 54.3411 65.5069 53.7985 65.3743 53.4629C66.4657 53.4225 66.9557 53.3745 67.2011 53.3581C67.6012 53.3311 67.9734 53.0183 67.7669 52.793C67.561 52.5676 66.7995 52.4463 64.614 49.8059C62.4277 47.1654 62.2329 46.4385 61.7028 47.0607C61.1728 47.683 61.9715 48.6084 61.7028 49.1599C61.4343 49.7117 59.1316 51.1585 57.9028 51.905C56.6737 52.6514 56.3248 52.7368 56.4471 53.4389C56.5334 53.9316 57.887 53.7849 59.8076 53.645C59.7457 54.8089 59.6895 57.729 59.4391 59.4943C59.2332 60.9445 58.727 62.0951 58.4381 62.6617C57.5287 62.7265 56.9046 62.7882 56.5321 62.872C56.373 62.8228 56.2291 62.796 56.1239 62.8046C55.6316 62.8432 55.2137 63.3981 55.1535 64.1768C55.0939 64.9552 53.6758 67.3408 52.2432 67.6485C50.8102 67.9566 49.6922 67.6373 48.7659 66.0338C48.2536 65.1455 48.0811 65.1593 47.796 65.2267C47.5105 65.2941 47.048 67.6575 49.4132 69.1022C51.2616 70.2309 54.1101 69.7412 55.7377 68.548C57.2571 68.3429 62.1321 67.7244 68.899 67.2446C75.2386 66.7956 86.1218 66.2076 90.9597 65.9374C90.9641 66.0905 90.9686 66.2326 90.9729 66.357C90.9905 66.8906 91.0423 67.3227 91.1171 67.6789C87.975 67.8721 85.7361 68.1314 83.7768 68.3752C80.5313 68.7795 76.9004 69.1795 76.9845 69.6669C77.0278 69.9159 78.0541 69.9099 79.3296 69.8236C79.23 70.0343 79.1312 70.3399 79.006 70.7973C78.615 72.2274 77.8093 73.5638 77.2275 73.8652C76.6451 74.1664 76.6209 74.6021 77.1463 74.7535C77.6716 74.9045 79.6046 75.2214 80.5424 72.7347C81.2055 70.9762 81.2938 70.0523 81.2896 69.6601C81.9253 69.6016 82.5376 69.5442 83.0488 69.5055C84.2414 69.4154 87.8106 69.2531 92.2119 69.1685C92.2574 69.1758 92.3026 69.1811 92.3471 69.1828C92.3639 69.1831 92.3803 69.1767 92.3961 69.1652C95.7747 69.1026 99.6247 69.0859 103.263 69.1828C104.257 69.2089 105.25 69.2438 106.23 69.2828C106.299 69.3803 106.363 69.4318 106.416 69.4244C106.452 69.4202 106.506 69.3733 106.567 69.297C110.263 69.4502 113.731 69.6712 116.241 69.8067C116.217 70.1286 116.253 70.5793 116.403 71.0518C114.935 70.7879 111.47 70.6536 108.842 70.3935C105.548 70.0677 93.7396 69.9463 89.679 70.3935C85.6185 70.8406 83.1795 71.1063 83.2108 71.6046C83.242 72.1029 95.1986 71.466 98.816 71.524C102.091 71.5764 114.548 71.9308 116.875 71.9977C117.151 72.3794 117.533 72.7274 118.059 72.9772C120.095 73.9432 121.779 74.2164 121.94 73.7037C122.102 73.1913 120.399 73.4438 119.596 72.0086C119.075 71.0769 118.696 70.3562 118.355 69.9068C119.493 69.9466 120.159 69.9338 120.162 69.8283C120.171 69.4523 119.446 69.1665 116.846 68.6982C115.235 68.4077 111.565 67.9364 107.189 67.6476C107.241 67.4089 107.29 67.1535 107.332 66.8617C107.661 64.5372 107.746 60.7045 107.872 56.83C107.957 54.1827 107.841 50.9623 107.663 47.9845C107.724 48.0073 107.791 48.0248 107.872 48.0295C108.005 48.0382 108.623 48.0368 109.57 48.0283C109.316 49.0677 108.842 53.1175 109.327 56.7493C109.87 60.8171 110.031 60.447 110.621 60.5436C111.21 60.6406 111.776 57.9097 111.834 54.8922C111.883 52.2874 111.486 48.8914 111.377 48.0098C115.185 47.9651 121.253 47.8745 125.369 47.823C125.198 48.8371 124.642 52.42 124.851 54.8921C125.097 57.7973 125.774 59.8255 126.145 59.9784C126.516 60.1312 127.455 58.0286 127.519 54.6501C127.536 53.7866 127.496 52.902 127.428 52.0625C127.753 52.4581 128.159 52.8247 128.652 53.1157C129.469 53.5994 130.42 54.084 131.311 54.4991C131.002 55.141 130.739 56.3788 131.32 58.5252C131.8 60.3025 132.211 61.1638 132.525 61.6062C132.045 61.5977 131.607 61.5922 131.239 61.593C128.714 61.5989 126.757 62.2299 126.872 62.6428C126.989 63.0561 129.381 62.8483 130.673 62.8847C131.964 62.9217 143.206 63.5311 143.206 63.5311C143.206 63.5311 143.503 64.9307 144.014 66.1144C144.271 66.709 144.768 67.3165 145.369 67.7951C145.269 67.7729 145.168 67.7506 145.065 67.729C143.232 67.3461 134.255 65.499 123.072 65.3071C111.89 65.1148 109.353 64.8638 108.518 65.2265C107.683 65.5887 107.767 65.8913 108.114 66.1951C108.461 66.4994 120.361 66.5136 124.608 66.7602C128.567 66.9903 144.542 68.5393 147.273 68.6886C147.292 68.6911 147.311 68.6955 147.329 68.698C148.669 68.8629 150.326 68.9338 151.21 67.8907C152.094 66.8474 151.644 65.9731 151.291 65.953C150.938 65.9327 150.742 66.5608 149.674 67.4061C148.606 68.2517 147.636 67.2294 146.925 65.4683C146.213 63.7074 146.436 62.0009 145.712 61.7547C145.054 61.5306 144.019 61.7745 142.168 61.8255C142.048 61.0581 141.785 59.3271 141.588 57.5564C141.387 55.7495 141.476 53.9646 141.364 53.0855C142.13 53.0945 142.697 53.0666 142.72 52.9541C142.747 52.8215 142.438 52.6975 141.941 52.5843C141.545 52.2989 140.836 51.7725 140.376 51.3396C139.777 50.7777 138.894 48.7082 138.712 48.2756C138.728 48.2469 138.745 48.215 138.758 48.191C139.115 47.5181 138.428 47.6636 138.03 47.7065C137.633 47.7494 136.662 49.4382 135.443 50.4516C134.722 51.0507 134.057 51.5017 133.67 51.8396C133.47 51.8696 133.32 51.9159 133.26 51.9854C133.03 52.2537 132.847 52.4322 133.664 52.7121C134.126 52.87 134.867 52.9214 135.67 52.9399C135.528 53.373 135.492 54.0957 135.524 54.8919C135.529 55.0036 135.535 55.1567 135.542 55.3416C134.986 55.037 132.484 53.9018 130.673 52.4699C128.79 50.982 127.621 48.9287 127.439 48.4331C127.318 48.1035 127.039 47.9645 126.863 47.9064C126.857 47.8726 126.85 47.8348 126.844 47.8051C128.242 47.7898 129.256 47.782 129.621 47.7872C131.508 47.8142 132.238 47.6288 131.562 47.303C131.406 47.2273 130.894 47.1501 130.161 47.0754C129.892 46.9098 129.5 46.6329 128.975 46.1725C127.889 45.2205 127.654 44.3763 127.358 43.6695C127.062 42.9626 127.439 42.6012 126.63 42.7008C126.457 42.7223 126.313 42.7631 126.186 42.8159C125.505 42.7743 124.454 42.7206 123.675 42.7305C123.827 42.0789 124.013 41.5073 124.204 41.1671C124.711 40.2662 125.006 40.2159 124.528 39.4712C124.049 38.7271 121.904 35.9383 117.493 36.0803C113.082 36.2229 111.661 38.788 111.429 39.0675C111.198 39.3473 111.288 39.6739 111.671 40.521C111.898 41.0193 112.1 41.8141 112.234 42.6532C111.267 42.5902 109.782 42.5592 109.569 42.7008C109.342 42.8519 109.563 43.1399 110.104 43.2879C110.038 43.5591 109.962 43.9389 109.812 44.4772C109.522 45.5159 108.174 46.3995 107.585 46.7434C107.367 43.4712 107.094 40.6562 106.968 39.482C108.637 39.4703 109.987 39.415 110.135 39.2292C110.386 38.9146 109.101 38.5798 106.821 38.4218C106.698 38.4132 106.558 38.4042 106.405 38.3952C106.365 36.9694 106.205 32.3668 105.796 30.5824C107.811 30.6716 109.742 30.672 110.055 30.5905C110.741 30.4102 110.125 30.1922 108.923 29.2986C107.72 28.4047 105.217 24.8789 103.505 20.1755C103.236 19.4369 102.984 18.6672 102.747 17.8939C104.812 17.8407 105.476 17.6806 105.608 17.3497C105.702 17.1094 104.188 16.9828 102.454 16.9196C101.553 13.851 100.856 10.9171 100.189 9.85658C100.82 9.79516 101.353 9.72258 101.565 9.67973C102.229 9.54498 101.819 9.55651 101.807 9.19511C101.798 8.91361 101.01 8.65874 99.9032 8.61363C100.062 7.9832 100.192 6.73725 100.352 4.75481C100.579 1.93443 99.9967 0.154914 99.2889 -9.15527e-05L99.289 2.21942e-06ZM111.187 60.7858C111.095 61.1501 113.705 61.1425 114.906 61.0279C116.107 60.9133 124.638 61.1257 125.013 60.9472C125.387 60.7686 125.233 60.4317 124.689 60.2206C124.145 60.009 119.454 59.7485 117.008 59.8169C114.563 59.8851 111.278 60.4212 111.187 60.7859V60.7858ZM114.017 51.1781C114.017 51.1781 114.069 54.8373 114.097 56.2643C114.125 57.6914 114.568 59.5072 115.068 59.2515C115.567 58.9962 115.634 51.0167 115.634 51.0167C115.634 51.0167 116.753 51.8918 117.17 51.4201C117.587 50.9489 117.075 50.6099 116.523 50.1287C115.97 49.6471 114.193 49.5896 113.289 49.9669C112.385 50.3442 112.209 50.8974 112.561 51.4201C112.914 51.9433 114.017 51.1781 114.017 51.1781V51.1781ZM97.5217 42.2163C97.7862 42.334 98.2552 42.1677 98.7487 42.3288C98.7883 42.3095 98.8158 42.297 98.8158 42.297C98.8158 42.297 98.8096 42.3185 98.8011 42.3489C98.8621 42.3717 98.9226 42.3966 98.9835 42.4309C99.203 42.5545 99.4212 42.7613 99.6244 43.1043C100.358 44.3471 100.413 49.9604 99.4625 50.0476C98.5122 50.1347 97.7497 48.9554 97.926 46.8992C98.0887 45.006 98.7046 42.703 98.8011 42.3489C98.7835 42.3422 98.7663 42.3348 98.7486 42.3288C98.3831 42.5074 96.5161 43.5249 96.39 45.7686C96.2504 48.2562 96.692 51.3816 99.22 51.5008C101.748 51.6206 102.278 47.7581 101.807 44.8806C101.336 42.0034 98.5859 41.237 96.9559 41.3283C95.3258 41.4196 97.0994 42.0278 97.5216 42.2163H97.5217ZM98.9776 54.8918C98.9776 54.8918 100.221 56.9407 100.975 57.7326C100.938 57.8399 100.914 57.9857 100.901 58.1613C100.766 58.1476 100.612 58.1339 100.433 58.1215C99.4918 58.0546 98.4313 57.8768 97.7118 57.8305C98.2274 56.6649 98.9776 54.8919 98.9776 54.8919V54.8918ZM101.565 65.7107C100.805 65.6502 99.0453 65.5963 97.3768 65.6339C97.4431 65.3394 97.4938 64.9232 97.5217 64.3376C97.6054 62.5982 97.0776 59.6085 97.2445 58.8742C98.1642 58.9054 99.9488 58.9243 100.89 58.8252C100.909 59.6389 101.012 60.7492 101.08 61.9158C101.201 64.032 101.334 65.3741 101.726 65.3874C102.118 65.4008 102.302 64.7561 102.373 63.7729C102.445 62.7896 102.493 58.8232 102.293 58.202C102.213 57.9552 102.062 57.757 101.888 57.6231C101.89 57.584 101.888 57.5562 101.888 57.5562C101.888 57.5562 99.9554 53.3115 98.7352 53.5193C97.5146 53.727 95.6879 56.5677 95.824 59.6553C95.927 61.9867 96.2403 64.5231 96.5291 65.6618C96.5174 65.6622 96.5057 65.6626 96.494 65.6631C94.9213 65.7356 93.6252 65.9125 93.6411 66.276C93.6755 67.0749 97.7016 66.6553 99.6246 66.5988C101.547 66.542 104.122 66.9829 104.152 66.518C104.182 66.0527 103.206 65.8408 101.565 65.7107H101.565ZM118.544 41.6514C117.255 41.5974 115.847 42.3348 115.957 43.1855C116.067 44.0352 117.067 45.106 117.574 44.9614C118.081 44.8167 117.332 44.154 117.332 44.154C117.332 44.154 119.236 44.2648 119.757 43.5081C120.278 42.7515 119.834 41.7051 118.544 41.6514H118.544ZM82.2401 43.9926C82.2207 44.597 81.9617 45.4275 82.8062 45.5267C83.6509 45.6253 83.7484 45.2171 83.7767 44.558C83.8051 43.8979 84.065 43.476 83.3724 43.4274C82.6792 43.379 82.2595 43.388 82.2401 43.9926ZM123.315 51.9047C123.779 51.9973 124.121 51.6013 124.123 51.0167C124.126 50.4322 122.722 49.6184 121.293 49.7248C119.864 49.8313 119.336 50.9236 119.595 51.5008C119.855 52.0781 120.727 51.4202 120.727 51.4202H120.97C120.97 51.4202 121.141 53.3503 121.132 54.8111C121.123 56.2717 121.216 59.6318 122.021 59.5747C122.827 59.5177 122.587 51.4201 122.587 51.4201C122.587 51.4201 122.851 51.8116 123.315 51.9047H123.315ZM119.029 59.4939C119.309 59.4134 119.507 58.93 119.515 57.3948C119.522 55.8591 119.438 53.9562 118.625 53.923C117.813 53.8901 117.68 54.3978 117.493 55.5377C117.307 56.6775 117.69 59.1549 118.059 59.3321C118.428 59.5097 118.75 59.574 119.029 59.4938V59.4939ZM112.076 62.2386C111.18 62.4296 111.591 63.1269 111.591 63.1269C111.591 63.1269 113.123 63.1476 115.957 63.2076C118.79 63.2672 126.231 63.7329 126.226 63.2076C126.22 62.6823 124.924 62.2251 123.477 61.9963C122.029 61.768 112.972 62.048 112.076 62.2385V62.2386ZM136.857 61.7248C137.149 60.5339 137.451 57.9978 137.383 56.0223C137.33 54.4436 136.953 53.4578 136.58 52.951C136.909 52.9519 137.236 52.9514 137.545 52.9539C138.062 52.9586 138.915 53.0012 139.781 53.0373C139.707 53.9392 139.519 56.5094 139.647 57.9598C139.766 59.2942 140.404 60.9573 140.943 61.8306C139.878 61.8174 138.396 61.7724 136.857 61.7247V61.7248ZM136.332 51.7434C136.641 51.5591 137.172 50.8145 137.666 50.0398C137.956 50.6866 138.702 51.3089 139.405 51.9046C139.572 52.0458 139.728 52.1604 139.879 52.263C139.776 52.251 139.671 52.2389 139.567 52.2273C138.162 52.0728 136.917 51.9106 136.127 51.8471C136.206 51.811 136.277 51.7759 136.332 51.7434H136.332ZM133.464 61.6261C133.307 60.372 132.701 57.0518 132.613 56.1836C132.574 55.7999 132.472 55.3518 132.344 54.9587C133.139 55.2978 133.803 55.5415 134.149 55.6184C134.861 55.7763 135.405 55.7252 135.558 55.7055C135.629 57.4235 135.772 60.782 135.83 61.6931C135.013 61.6678 134.208 61.6442 133.465 61.6262L133.464 61.6261ZM123.328 46.6596C123.339 46.4975 123.335 46.2634 123.315 45.9301C123.279 45.3372 123.349 44.5202 123.481 43.7141C124.141 43.7347 124.995 43.7352 125.635 43.6837C125.635 43.7811 125.641 43.8828 125.66 43.9927C125.775 44.6795 126.653 46.1949 128.216 46.9151C126.723 46.8116 124.945 46.7214 123.328 46.6597V46.6596ZM119.272 39.7939C117.791 39.715 114.624 39.561 113.272 39.748C113.095 39.54 112.965 39.4711 112.965 39.4711C112.965 39.4711 114.996 37.5051 118.221 37.776C121.446 38.0464 123.557 39.8751 123.557 39.8751C123.557 39.8751 123.079 40.0296 122.587 40.4781C121.872 40.2381 120.575 39.864 119.272 39.7939ZM120.242 46.576C118.487 46.5571 115.76 46.5584 113.581 46.5636C113.875 45.7935 114.444 44.1344 114.178 42.2163C114.078 41.4885 113.916 40.9467 113.745 40.5443C113.918 40.5399 114.109 40.5309 114.34 40.521C115.505 40.4691 120.414 40.503 121.698 40.6825C121.948 40.7172 122.154 40.7382 122.327 40.7499C121.919 41.2234 121.561 41.9233 121.536 42.9431C121.491 44.8353 122.06 46.1043 122.5 46.6301C121.651 46.6018 120.874 46.5829 120.242 46.576H120.242ZM110.135 46.576C110.135 46.576 110.673 46.1099 111.057 45.515C111.387 45.0043 111.562 44.3983 111.672 43.912C111.705 43.7648 111.714 43.6364 111.706 43.521C111.932 43.5445 112.154 43.5635 112.35 43.5738C112.376 43.8554 112.395 44.134 112.4 44.3962C112.414 45.2593 112.478 46.0894 112.521 46.5666C111.12 46.5708 110.135 46.576 110.135 46.576ZM98.654 67.4061C96.3955 67.4404 94.4621 67.5048 92.7654 67.5877C92.8251 67.079 92.8783 66.4786 92.9256 65.8241C93.1985 65.8073 93.3642 65.7962 93.3981 65.7915C93.6878 65.7503 94.0793 65.5971 92.9492 65.4787C93.1166 62.9713 93.201 59.843 93.2368 58.283C93.2978 55.6088 93.1836 41.7571 93.092 39.6482C96.7053 39.5931 101.504 39.4623 103.344 39.4713C104.052 39.4749 104.811 39.4808 105.554 39.4839C105.253 41.7056 105.114 57.316 105.122 61.9161C105.127 64.3766 105.36 66.2787 105.638 67.5547C103.39 67.4345 101.007 67.3697 98.6539 67.4062L98.654 67.4061ZM96.1279 38.0309C95.1794 38.0155 94.3324 38.0095 93.6745 38.0168C93.6591 37.5443 93.5784 36.8039 93.5599 35.6769C93.5363 34.2121 93.388 31.7094 93.0196 30.5933C93.0646 30.5923 93.1141 30.591 93.1557 30.5907C94.1086 30.5764 95.348 30.6742 96.1481 30.6371C95.8905 32.4962 96.0653 36.7283 96.1279 38.0309V38.0309ZM98.726 32.558C98.7146 34.4416 98.7127 37.0291 98.8771 38.094C98.1535 38.0738 97.4411 38.0561 96.7682 38.0424C96.9255 37.1656 97.1135 35.5709 97.4412 33.0125C97.4646 32.8296 97.4883 32.6589 97.5127 32.4862C97.8471 32.5219 98.2772 32.5472 98.7261 32.558H98.726ZM98.7351 31.1558C98.7347 31.2291 98.7341 31.3087 98.7339 31.3905C98.3613 31.3618 97.9926 31.3364 97.6883 31.3334C98.1762 28.4163 98.6964 27.3803 98.6964 27.3803C98.6964 27.3803 98.7457 27.3472 98.8205 27.316L98.7157 27.5422C98.7157 27.5422 98.7406 29.1319 98.735 31.1559L98.7351 31.1558ZM99.5359 32.5583C99.8347 32.5515 100.124 32.5364 100.378 32.5094C100.763 34.8622 101.152 37.3313 101.242 38.018C101.248 38.0734 101.258 38.1205 101.266 38.1696C100.59 38.146 99.8987 38.124 99.2131 38.1039C99.3664 37.1373 99.4895 34.8486 99.5359 32.5584V32.5583ZM99.4571 27.521C99.4895 27.5823 99.5197 27.655 99.5432 27.7449C99.6303 28.0755 99.9037 29.6494 100.208 31.4789C100.202 31.4789 100.196 31.4786 100.19 31.4786C100.01 31.4789 99.7897 31.4678 99.5522 31.4523C99.5666 29.8926 99.5399 28.4394 99.4571 27.5211V27.521ZM101.888 31.6399C101.818 31.224 101.739 30.7283 101.644 30.2033C102.407 30.3524 103.623 30.4625 104.898 30.5363C104.493 31.6493 104.296 33.8925 104.314 35.2729C104.331 36.5557 104.611 37.6929 104.946 38.3183C104.133 38.2801 103.174 38.2397 102.155 38.2016C102.206 37.1045 102.194 33.4551 101.888 31.6398V31.6399ZM90.9729 29.5408C90.9729 29.5408 94.0673 27.9316 95.5815 24.1311C96.3077 22.309 97.1734 19.8965 97.8789 17.8772C98.6567 17.899 99.4638 17.9124 100.271 17.9146C100.327 17.9149 100.377 17.9146 100.431 17.9149C101.163 20.1462 102.111 22.7557 102.939 24.1311C104.568 26.835 107.548 29.5408 107.548 29.5408C107.548 29.5408 103.229 29.3055 101.522 29.5668C101.131 27.6218 100.499 25.5282 99.3008 25.5042C97.7167 25.4716 96.7617 28.1359 96.2964 29.9192C95.7509 29.7858 94.9488 29.7385 94.2068 29.7021C92.951 29.6407 90.9728 29.5408 90.9728 29.5408H90.9729ZM99.2202 13.9586C99.2202 13.9586 99.5694 15.2076 100.094 16.8685C99.4798 16.8626 98.9214 16.8621 98.4923 16.865C98.4086 16.866 98.3201 16.8667 98.2297 16.8676C98.8138 15.1781 99.2203 13.9586 99.2203 13.9586H99.2202ZM65.2609 66.4372C60.8526 66.8931 58.1308 67.2931 56.6146 67.6595C56.6699 67.5758 56.7271 67.4926 56.7708 67.4059C57.6372 65.6947 57.8297 64.6728 57.8857 64.1291C60.1929 63.9784 67.7287 63.5097 74.2357 63.369C80.9939 63.2232 88.7814 63.7509 90.903 63.7389C90.9171 64.3482 90.9307 64.9007 90.9436 65.3745C86.9152 65.3298 71.6107 65.7806 65.2609 66.4372ZM61.7837 59.736C62.4369 57.8223 62.3699 54.8308 62.2571 53.5239C62.3421 53.5227 62.4258 53.5201 62.5114 53.5193C63.2338 53.5137 63.8417 53.5042 64.3631 53.4919C64.3363 53.9274 64.2518 55.3982 64.2094 57.0716C64.1674 58.7501 64.0254 61.4734 63.9811 62.3055C62.3211 62.4193 60.9571 62.5005 59.861 62.5682C60.4785 62.1003 61.2571 61.2801 61.7838 59.736H61.7837ZM62.1073 50.9355C62.5446 50.4021 62.7541 50.1287 62.7541 50.1287C62.7541 50.1287 63.5707 51.454 64.0475 51.9047C64.5253 52.355 65.2609 52.6313 65.2609 52.6313L60.0051 52.5506C60.0051 52.5506 61.6699 51.4699 62.1073 50.9356V50.9355ZM66.069 56.7488C66.0386 56.4184 66.0005 56.1192 65.9591 55.8364C66.7124 55.6583 68.2703 55.2706 69.6204 54.8144C69.599 55.9158 69.5299 58.1208 69.3844 59.1706C69.2467 60.1642 68.6543 61.411 68.3214 62.0534C67.3007 62.0969 66.3213 62.1475 65.4174 62.2076C65.7265 61.3702 66.2921 59.1531 66.0689 56.7488H66.069ZM70.9816 54.2862C71.2434 54.1655 71.4737 54.0435 71.6481 53.9229C72.2279 53.5221 72.9923 52.8676 73.6961 52.1616C73.7184 53.2629 73.7522 54.9144 73.787 56.5347C73.2314 56.7089 72.8488 56.8982 72.8613 57.0715C72.872 57.2268 73.2317 57.3041 73.8041 57.3363C73.8518 59.5411 73.8977 61.5011 73.9123 61.6736C73.9192 61.7573 73.9367 61.8334 73.96 61.9036C72.3282 61.9239 70.7106 61.9615 69.1797 62.0182C69.5771 61.1993 70.2903 59.5303 70.5973 57.556C70.8518 55.9157 70.9466 54.8727 70.9815 54.2861L70.9816 54.2862ZM74.8237 61.0248C75.3459 59.9647 76.1137 58.4806 76.3378 58.4441C76.6751 58.3896 77.4777 61.68 78.274 61.8953C77.0855 61.8848 75.8698 61.8854 74.6562 61.8955C74.71 61.6751 74.7665 61.3763 74.8237 61.0248ZM75.2751 57.3489C75.509 57.344 75.7565 57.3368 76.0089 57.3291C75.9543 57.3466 75.8978 57.362 75.8526 57.3947C75.6407 57.5475 75.3416 58.3733 75.0636 59.29C75.1398 58.6634 75.2118 57.9969 75.2751 57.3488V57.3489ZM75.4485 55.2957C75.5304 54.0969 75.5819 52.812 75.5907 51.7347C76.1335 51.693 78.1167 51.4316 78.7636 49.8055C78.9819 49.2561 79.1713 48.4484 79.3193 47.5694C80.1511 47.5132 80.9714 47.4647 81.5936 47.4637C82.5791 47.4625 84.9185 47.4488 86.9176 47.3698C87.3506 48.7037 88.1447 50.1081 89.3559 51.2587C90.0446 51.9132 90.4666 52.1916 90.7259 52.284C90.7272 52.7839 90.7291 53.2079 90.73 53.5192C90.7327 54.2832 90.746 55.4133 90.7656 56.6985C90.6914 56.6852 90.6048 56.674 90.4875 56.6681C89.7837 56.6312 83.7269 56.0955 80.8656 55.9411C78.0043 55.7869 78.3905 55.8459 76.9846 55.9411C76.5411 55.9715 75.9645 56.0493 75.3834 56.1557C75.4082 55.8524 75.4306 55.5625 75.4486 55.2957H75.4485ZM90.8055 59.0308C90.6382 58.5026 90.2265 57.4369 89.5528 57.1484C90.1042 57.1309 90.4726 57.1064 90.5682 57.0716C90.6468 57.0433 90.712 57.0154 90.7704 56.9884C90.7807 57.6429 90.7925 58.3317 90.8055 59.0308V59.0308ZM86.1566 57.19C87.1591 57.1862 88.091 57.1793 88.8399 57.1657C87.9305 57.6214 87.4961 59.6553 87.4961 59.6553C87.4961 59.6553 87.0539 57.9501 86.1566 57.19ZM80.5664 57.2059C81.6758 57.1978 83.009 57.1965 84.3382 57.1945C83.2669 57.9729 82.4022 59.7361 82.4022 59.7361C82.4022 59.7361 81.4575 57.9283 80.5664 57.206V57.2059ZM78.2785 59.736C78.2785 59.736 78.1686 59.0527 77.8742 58.3635C77.666 57.8754 76.9996 57.4154 76.4442 57.3145C77.1919 57.2882 77.9846 57.2556 78.7635 57.2329C78.9386 57.2277 79.1359 57.2235 79.3518 57.2196C78.6759 57.9526 78.2785 59.7359 78.2785 59.7359V59.736ZM79.8957 57.7986C80.3506 57.7308 81.3784 61.6287 82.1288 61.9703C80.9506 61.9325 79.7015 61.9084 78.4192 61.896C79.1932 61.6882 79.4296 57.8672 79.8957 57.7985V57.7986ZM90.8855 62.9814C90.169 62.6784 88.7283 62.3557 85.9597 62.1583C84.8707 62.0801 83.6316 62.0201 82.3004 61.9759C83.075 61.7507 84.5643 57.9613 85.232 57.9599C85.9166 57.9582 86.1017 62.3262 87.2537 62.2386C88.4051 62.1514 88.9845 58.1309 89.275 58.1214C89.4991 58.1136 90.4348 60.2819 90.8503 61.3433C90.8617 61.9077 90.8738 62.4583 90.8855 62.9814ZM87.7388 37.3721C88.0429 37.5115 88.3246 37.5558 88.3855 37.13C88.4465 36.7042 87.1772 34.4142 85.313 31.236C83.4485 28.0584 79.1889 24.3373 79.1678 24.8583C79.1469 25.3784 80.5519 26.651 81.7554 28.4102C82.9587 30.1699 87.4342 37.2331 87.7387 37.3721H87.7388ZM85.5555 54.1652C85.5087 53.8236 83.6957 53.8425 83.6957 53.8425C83.6957 53.8425 83.6579 50.8192 83.6151 50.209C83.5721 49.5991 82.1555 49.6686 81.7554 49.8862C81.3553 50.1037 81.5129 53.7613 81.5129 53.7613C81.5129 53.7613 80.6359 53.5171 80.0575 53.5193C79.4785 53.5213 79.379 53.7286 79.6532 54.1652C79.9271 54.6018 85.6021 54.5072 85.5554 54.1652H85.5555ZM86.8491 31.3168C87.2672 31.139 85.5765 28.9184 84.8281 27.6031C84.0796 26.2875 81.2358 22.4416 81.0276 22.8395C80.8199 23.2378 82.8802 26.1182 84.0194 27.8456C85.1579 29.5726 86.4314 31.495 86.8491 31.3169V31.3168Z" fill="#5A5A5A"/>
<path fill-rule="evenodd" clip-rule="evenodd" d="M131.744 147.327L133.215 145.563H132.162L130.598 147.495V145.563H129.731V150H130.598V148.666L131.171 147.981L132.311 150H133.321L131.744 147.327V147.327ZM123.975 147.507H123.159V146.336H123.975C124.356 146.336 124.605 146.579 124.605 146.921C124.605 147.264 124.356 147.507 123.975 147.507V147.507ZM125.471 146.921C125.471 146.179 124.935 145.563 124.032 145.563H122.293V150H123.159V148.23H123.782L124.649 150H125.651L124.661 148.086C125.091 147.931 125.471 147.545 125.471 146.921H125.471ZM115.883 148.485L116.444 146.872L116.986 148.485H115.883ZM116.082 145.563L114.469 150H115.372L115.64 149.215H117.216L117.478 150H118.382L116.762 145.563H116.082V145.563ZM109.666 147.551H108.856V146.336H109.666C110.058 146.336 110.308 146.585 110.308 146.946C110.308 147.308 110.058 147.551 109.666 147.551V147.551ZM109.709 145.563H107.99V150H108.856V148.33H109.709C110.625 148.33 111.174 147.7 111.174 146.946C111.174 146.192 110.625 145.563 109.709 145.563V145.563ZM97.5234 147.351L96.6951 145.563H95.7539L97.0874 148.18V150H97.9475V148.18L99.281 145.563H98.3398L97.5234 147.351V147.351ZM90.6705 145.563H89.8045V150H92.6835V149.227H90.6704V145.563H90.6705ZM84.5402 150H85.4062V145.563H84.5402V150ZM78.1367 147.962L76.9775 145.563H76.1238V150H76.9898V147.414L77.8436 149.097H78.4293L79.2769 147.414V150H80.1427V145.563H79.2895L78.1367 147.962V147.962ZM69.7139 148.485L70.2744 146.872L70.8164 148.485H69.7139V148.485ZM69.913 145.563L68.2994 150H69.2028L69.4706 149.215H71.0471L71.3088 150H72.2122L70.5921 145.563H69.913ZM62.1191 150H62.9856V148.199H64.7362V147.426H62.9856V146.335H65.0417V145.563H62.1191V150Z" fill="#5A5A5A"/>
</g>
<defs>
<clipPath id="clip0">
<rect width="197.652" height="150" fill="white"/>
</clipPath>
</defs>
</svg>
