<?xml version="1.0" encoding="utf-8"?><svg version="1.1" id="Layer_1" xmlns="http://www.w3.org/2000/svg" xmlns:xlink="http://www.w3.org/1999/xlink" x="0px" y="0px" viewBox="0 0 46.5 20" style="enable-background:new 0 0 46.5 20;" xml:space="preserve"><style type="text/css">.st0{fill-rule:evenodd;clip-rule:evenodd;}</style><path id="XMLID_37_" d="M16.5,12V8.4l-0.2-0.2h0.5c0,0,0.1-1.2,1.2-1.2c1.1,0,1.2,1.2,1.2,1.2h0.3V6.6l-0.4-0.4V4.2l-0.3-0.3h5.3v2.5c0,0-3.1,0.5-3.1,5.5v0.1h-2.2V9.7c0,0-0.2-0.7-0.9-0.9c-0.5,0.1-0.8,0.8-0.8,0.8V12L16.5,12"/><path id="XMLID_36_" d="M20.5,4h-0.4V2.8l-0.2-0.2h0.2c0,0,0-0.8,0.6-0.8V3C20.7,3,20.5,3.1,20.5,4"/><path id="XMLID_35_" d="M20.9,4h0.4V2.8l0.2-0.2h-0.2c0,0,0-0.8-0.6-0.8V3C20.7,3,20.9,3.1,20.9,4"/><polygon id="XMLID_34_" points="17.9,7 18,5.7 18.1,7 "/><path id="XMLID_33_" d="M18.2,7c0,0.1-0.1,0.1-0.3,0.1c-0.1,0-0.3-0.1-0.3-0.1c0-0.1,0.1-0.1,0.3-0.1C18.1,6.8,18.2,6.9,18.2,7"/><path id="XMLID_32_" d="M20.9,1.7c0,0.1-0.1,0.1-0.2,0.1c-0.1,0-0.2-0.1-0.2-0.1c0-0.1,0.1-0.1,0.2-0.1C20.8,1.6,20.9,1.6,20.9,1.7"/><polygon id="XMLID_31_" points="20.6,1.6 20.7,0.6 20.8,1.6 "/><path id="XMLID_30_" d="M31.6,12V8.4l0.2-0.2h-0.5c0,0-0.1-1.2-1.2-1.2C29.1,7,29,8.2,29,8.2h-0.3V6.6l0.4-0.4V4.2l0.3-0.3h-5.3v2.5c0,0,3.1,0.5,3.1,5.5v0.1h2.2V9.7c0,0,0.2-0.7,0.9-0.9C30.7,8.9,31,9.6,31,9.6V12L31.6,12"/><path id="XMLID_29_" d="M27.7,4h0.4V2.8l0.2-0.2h-0.2c0,0,0-0.8-0.6-0.8V3C27.5,3,27.7,3.1,27.7,4"/><path id="XMLID_28_" d="M27.3,4h-0.4V2.8l-0.2-0.2h0.2c0,0,0-0.8,0.6-0.8V3C27.5,3,27.3,3.1,27.3,4"/><polygon id="XMLID_27_" points="30.3,7 30.2,5.7 30.1,7 "/><path id="XMLID_26_" d="M29.9,7c0,0.1,0.1,0.1,0.3,0.1c0.1,0,0.3-0.1,0.3-0.1c0-0.1-0.1-0.1-0.3-0.1C30,6.8,29.9,6.9,29.9,7"/><path id="XMLID_25_" d="M27.3,1.7c0,0.1,0.1,0.1,0.2,0.1c0.1,0,0.2-0.1,0.2-0.1c0-0.1-0.1-0.1-0.2-0.1C27.4,1.6,27.3,1.6,27.3,1.7"/><polygon id="XMLID_24_" points="27.6,1.6 27.5,0.6 27.4,1.6 "/><rect id="XMLID_23_" x="16.2" y="11.9" width="15.8" height="0.2"/><path id="XMLID_22_" d="M3.8,14.5C3.7,14.5,3.7,14.5,3.8,14.5c-0.1,0-0.2,0.1-0.2,0.1c0,0-0.1,0-0.1,0.1c0,0-0.1,0-0.1,0.1c0,0-0.1,0-0.1,0.1c0,0-0.1,0.1-0.1,0.1c0,0-0.1,0.1-0.1,0.1C3,15,3,15,3,15.1c0,0,0,0.1,0,0.1c0,0,0,0.1,0,0.1c0,0,0,0.1,0.1,0.1c0,0,0.1,0,0.1,0.1c0.1,0,0.1,0,0.2,0.1c0.1,0,0.2,0,0.3,0c0.2,0,0.3,0,0.5,0.1c0.2,0,0.3,0.1,0.5,0.2c0,0,0.1,0,0.1,0.1c0,0,0.1,0.1,0.1,0.1c0,0,0,0.1,0.1,0.1c0,0,0,0.1,0,0.1c0,0,0,0.1,0,0.1c0,0,0,0.1,0,0.1v0c0,0,0,0.1,0,0.1c0,0,0,0.1,0,0.1c0,0,0,0.1,0,0.1c0,0,0,0.1,0,0.1c0,0,0,0.1-0.1,0.1c0,0,0,0.1-0.1,0.1c-0.1,0.1-0.1,0.2-0.2,0.2c-0.1,0.1-0.2,0.1-0.3,0.2c-0.1,0.1-0.2,0.1-0.3,0.2c-0.1,0.1-0.2,0.1-0.3,0.1c-0.1,0-0.2,0.1-0.3,0.1c-0.1,0-0.2,0-0.3,0.1c-0.1,0-0.2,0-0.3,0c-0.1,0-0.2,0-0.2,0l0,0l0,0c-0.1,0-0.1,0-0.2,0c-0.1,0-0.1,0-0.2-0.1c-0.1,0-0.1,0-0.1-0.1c0,0-0.1-0.1-0.1-0.1l0,0v0c-0.2-0.1-0.3-0.4-0.3-0.6c0-0.1,0-0.3,0-0.4c0-0.1,0.1-0.3,0.2-0.3c0.1-0.1,0.2-0.1,0.3-0.1c0,0,0.1,0,0.1,0c0,0,0,0,0.1,0l0,0l0,0c0,0,0.1,0,0.1,0.1h0c0,0,0,0,0,0l0,0l0,0c0,0.1,0.1,0.1,0.1,0.2c0,0.1,0,0.1,0,0.2l0,0l0,0c0,0.1-0.1,0.1-0.1,0.2c0,0.1-0.1,0.1-0.1,0.1l0,0c0,0-0.1,0-0.1,0.1c0,0,0,0,0.1,0.1c0,0,0,0,0.1,0c0,0,0,0,0.1,0c0,0,0.1,0,0.1,0c0,0,0.1,0,0.1,0h0h0c0.3,0,0.6,0,0.9-0.1c0.3-0.1,0.6-0.3,0.8-0.5c0.1,0,0.1-0.1,0.1-0.1h0c0,0,0.1-0.1,0.1-0.1c0,0,0-0.1,0-0.1c0,0,0,0,0-0.1h0c0-0.1-0.1-0.1-0.2-0.2c-0.1,0-0.3-0.1-0.5-0.1h0h0c-0.3,0-0.5-0.1-0.7-0.2c-0.2-0.1-0.4-0.2-0.4-0.5c0-0.1,0-0.2,0-0.2c0-0.1,0-0.2,0.1-0.2c0-0.1,0.1-0.2,0.1-0.2c0.1-0.1,0.1-0.1,0.2-0.2c0,0,0.1-0.1,0.1-0.1c0,0,0.1-0.1,0.1-0.1h0C3.2,14.1,3.4,14,3.7,14c0.2,0,0.4,0,0.6,0c0.2,0,0.3,0.1,0.4,0.2c0,0.1,0.1,0.1,0.1,0.2l0,0.1l-0.1,0c-0.2,0-0.4-0.1-0.5-0.1C4,14.4,3.9,14.5,3.8,14.5"/><path class="st0" d="M5.2,16.5c0.1-0.6,0.6-0.7,1-0.5c0.5,0.2,0.3,0.7,0.3,1.1v0c0.3,0.2,0.7,0.2,0.8-0.2c0.1,0.6-0.1,1-0.7,0.8c-0.1,0-0.2-0.1-0.3-0.1l0,0c-0.1,0-0.3,0.1-0.4,0.1c-1.2,0.3-1-0.9-0.4-1.1c0.2-0.1,0.5,0,0.6,0.2l0,0l0,0C6.2,16.2,5.6,16.1,5.2,16.5 M6,17.3c-0.1-0.1-0.1-0.2-0.3-0.3c-0.2,0-0.4,0-0.3,0.2C5.4,17.6,5.8,17.5,6,17.3"/><path id="XMLID_19_" class="st0" d="M15.1,17.8l0-1c0.5,0.2,0.9,0.1,1-0.5c-0.4,0.1-0.7,0.3-0.9-0.1c-0.1-0.1-0.1-0.2-0.2-0.3c-0.4,0.4-0.4,0.1-0.4,1C14.7,17.4,14.7,17.8,15.1,17.8"/><path id="XMLID_18_" class="st0" d="M21.5,16L21.5,16c0,0-0.1,0.1-0.2,0.2c-0.1,0.1-0.2,0.2-0.2,0.2c0,0.1,0,0.2,0,0.3c-0.1,0.3-0.3,0.5-0.6,0.6c0.2,0.2,0.4,0.2,0.6,0c0,0.1,0,0.2,0,0.3l0,0c0,0.1,0.2,0,0.3,0c0.2,0,0.3-1.2,0.8-1.4c0,0.1,0,0.3,0,0.4c-0.1,0.6-0.1,1,0.7,1.1c0.4,0,1-0.1,1.4-0.2c0.2,0,0.3-0.2,0.3-0.4c0-0.1,0-0.3-0.1-0.4c0,0.4-0.9,0.5-1.2,0.5c-0.3,0-0.5,0-0.6-0.1c-0.2-0.1-0.1-0.5,0-0.7c0-0.3,0-0.6-0.3-0.6c-0.4,0-0.7,0.5-0.8,0.8C21.5,16.6,21.6,16,21.5,16"/><path id="XMLID_17_" d="M8.4,15.9L8.4,15.9c0,0-0.4,0.3-0.4,0.4c0,0.1,0,0.2,0,0.3c-0.1,0.3-0.3,0.6-0.6,0.6c0.2,0.2,0.4,0.2,0.6,0c0,0.1,0,0.4,0.1,0.4c0.1,0,0.2,0,0.2,0l0,0l0,0c0.1,0,0.2-1.1,0.8-1.4C9.1,16.6,9,17,9,17.3c0,0.2,0.1,0.4,0.3,0.3c0.3-0.1,0.1-1.1,0.6-1.4c0,0.1,0,0.3,0,0.4c-0.1,0.6-0.1,1.1,0.8,1.1c0.3,0,1.4,0,1.6-0.3c0.1-0.2,0.1-0.5-0.1-0.6c0,0.1,0,0.1-0.1,0.2c-0.1,0.1-0.1,0.1-0.2,0.1c-0.3,0.1-1.3,0.3-1.5,0.1c-0.3-0.2,0.3-1.2-0.4-1.3c-0.3,0-0.5,0.4-0.6,0.6c0-0.2,0.1-0.3-0.1-0.5C9.3,16,9.2,15.9,9,15.9c-0.3,0-0.6,0.4-0.7,0.7C8.4,16.6,8.4,15.9,8.4,15.9"/><path id="XMLID_16_" d="M26.3,16.8c-0.1-0.9-0.1-1.4-0.1-1.8c0-0.3,0.2-0.6,0.5-0.6c0,0-0.2-0.4-0.6,0c-0.4,0.4-0.3,1.6-0.3,2c0,0-0.4-0.4-0.9,0c-0.4,0.2-0.3,0.8-0.2,1.1c0.3,0.8,1.7,0.3,1.7-0.1c-0.3,0.3-1.1,0.1-1.2-0.2c-0.1-0.1-0.1-0.5,0.1-0.6c0.1,0,0.3,0,0.4,0.2c0.4,0.4,0,0.6,0.6,0.5C26.4,17.1,26.3,16.9,26.3,16.8"/><path id="XMLID_15_" d="M18,19.1c0.1,0.1,0.3,0.2,0.4,0.2c0,0-0.2,0.4-0.6,0c-0.4-0.4-0.3-1.6-0.3-2c0,0-0.4,0.4-0.9,0c-0.4-0.2-0.3-0.8-0.2-1.1c0.3-0.8,1.7-0.3,1.7,0.1c-0.3-0.3-1.1-0.1-1.2,0.2c-0.2,0.5,0.2,0.8,0.5,0.4c0.4-0.4,0-0.6,0.6-0.5C18,16.9,17.7,18.8,18,19.1"/><path class="st0" d="M12.4,16.5c0.1-0.6,0.6-0.7,1-0.5c0.5,0.2,0.3,0.7,0.3,1.1v0c0.3,0.2,0.7,0.2,0.8-0.2c0.1,0.6-0.1,1-0.7,0.8c-0.1,0-0.2-0.1-0.3-0.1l0,0c-0.1,0-0.3,0.1-0.4,0.1c-1.2,0.3-1-0.9-0.4-1.1c0.2-0.1,0.5,0,0.6,0.2l0,0l0,0C13.5,16.2,12.8,16.1,12.4,16.5 M13.2,17.3c-0.1-0.1-0.1-0.2-0.3-0.3c-0.2,0-0.4,0-0.3,0.2C12.7,17.6,13,17.5,13.2,17.3"/><path class="st0" d="M18.3,16.5c0.1-0.6,0.6-0.7,1-0.5c0.5,0.2,0.3,0.7,0.3,1.1v0c0.3,0.2,0.7,0.2,0.8-0.2c0.1,0.6-0.1,1-0.7,0.8c-0.1,0-0.2-0.1-0.3-0.1l0,0c-0.1,0-0.3,0.1-0.4,0.1c-1.2,0.3-1-0.9-0.4-1.1c0.2-0.1,0.5,0,0.6,0.2l0,0l0,0C19.3,16.2,18.7,16.1,18.3,16.5 M19.1,17.3C19,17.2,19,17.1,18.8,17c-0.2,0-0.4,0-0.3,0.2C18.5,17.6,18.9,17.5,19.1,17.3"/><path id="XMLID_10_" d="M28.7,15.6c0-0.5,0-1.1,0-1.6l0,0l0,0c0.9-0.1,1.6,0.2,2.1,0.6c0.3,0.2,0.4,0.5,0.5,0.8c0.1,0.3,0.1,0.6,0,0.9c-0.1,0.5-0.5,1-1.1,1.3c-0.3,0.2-0.8,0.2-1.2,0.2c-0.3-0.1-0.6-0.2-0.8-0.5c0-0.1-0.1-0.1-0.1-0.2v0c0-0.1,0-0.2,0-0.3l0-0.1l0.1,0.1c0,0,0.1,0.1,0.1,0.1c0.2,0.2,0.3,0.4,0.7,0.5c0.1,0,0.3,0,0.5,0c0.2,0,0.4-0.1,0.5-0.2c0.4-0.2,0.7-0.5,0.8-0.9c0.1-0.2,0.1-0.5,0-0.7c-0.1-0.2-0.2-0.5-0.4-0.7c-0.3-0.3-0.7-0.5-1.2-0.5h0c0,0,0,0-0.1,0c0,0,0,0,0,0v0l0,2.7v0.1l-0.1,0c-0.1,0-0.2-0.1-0.2-0.1c-0.1-0.1-0.2-0.1-0.2-0.2l0,0l0,0C28.7,16.5,28.7,16.1,28.7,15.6"/><path id="XMLID_9_" class="st0" d="M37.1,16c0.2,0.4-0.1,1.4-0.4,1.5c-0.2-0.1-0.5-1.1-0.2-1.5c-0.7,0-0.7,0.4-0.6,0.9c0.1,0.5,0.2,1,0.8,0.9c0.5,0,0.7-0.5,0.9-0.8C37.6,16.7,37.9,16,37.1,16"/><path class="st0" d="M38.4,16c-0.9,0.4-0.6,2.4,0.6,1.7C40.2,17,39,15.8,38.4,16 M38.3,16.5c-0.4,0.8,0.6,0.9,0.9,0.5c0.1-0.3-0.1-0.3-0.4-0.4C38.6,16.5,38.5,16.3,38.3,16.5"/><path id="XMLID_6_" d="M42.6,17.1c0-0.1-0.1-0.2-0.1-0.2c0,0.2-0.1,0.3-0.3,0.3c-0.3,0.1-2.2,0.3-1.9-0.2c0.3-0.4,1.1-0.6,0.7-0.9c-0.4-0.3-1.5-0.4-1.4,0.4c0-0.1,0.7-0.3,1-0.2c-0.3,0.2-1,0.7-0.6,1.1C40.5,17.9,42.8,18.2,42.6,17.1"/><path class="st0" d="M31.7,16.5c0.1-0.6,0.6-0.7,1-0.5c0.5,0.2,0.3,0.7,0.3,1.1l0,0c0.3,0.2,0.7,0.2,0.8-0.2c0.1,0.6-0.1,1-0.7,0.8c-0.1,0-0.2-0.1-0.3-0.1h0c-0.1,0-0.3,0.1-0.4,0.1c-1.2,0.3-1-0.9-0.4-1.1c0.2-0.1,0.5,0,0.6,0.2l0,0l0,0C32.7,16.2,32.1,16.2,31.7,16.5 M32.5,17.4c-0.1-0.1-0.1-0.2-0.3-0.3c-0.2,0-0.4,0-0.3,0.2C31.9,17.6,32.3,17.5,32.5,17.4"/><path id="XMLID_3_" class="st0" d="M34.5,17.8l0-1c0.5,0.2,0.9,0.1,1-0.5c-0.4,0.1-0.7,0.3-0.9-0.1c-0.1-0.1-0.1-0.2-0.2-0.3c-0.4,0.4-0.4,0.1-0.4,1C34,17.4,34.1,17.9,34.5,17.8"/><path class="st0" d="M43,16.5c0.1-0.6,0.6-0.7,1-0.5c0.5,0.2,0.3,0.7,0.3,1.1v0c0.3,0.2,0.7,0.2,0.8-0.2c0.1,0.6-0.1,1-0.7,0.8c-0.1,0-0.2-0.1-0.3-0.1h0c-0.1,0-0.3,0.1-0.4,0.1c-1.2,0.3-1-0.9-0.4-1.1c0.2-0.1,0.5,0,0.6,0.2l0,0l0,0C44,16.2,43.4,16.2,43,16.5 M43.8,17.4c-0.1-0.1-0.1-0.2-0.3-0.3c-0.2,0-0.4,0-0.3,0.2C43.2,17.6,43.6,17.5,43.8,17.4"/></svg>